<?xml version="1.0" encoding="UTF-8" standalone="no"?>
<!-- Created with Inkscape (http://www.inkscape.org/) -->

<svg
   xmlns:dc="http://purl.org/dc/elements/1.1/"
   xmlns:cc="http://creativecommons.org/ns#"
   xmlns:rdf="http://www.w3.org/1999/02/22-rdf-syntax-ns#"
   xmlns:svg="http://www.w3.org/2000/svg"
   xmlns="http://www.w3.org/2000/svg"
   xmlns:xlink="http://www.w3.org/1999/xlink"
   xmlns:sodipodi="http://sodipodi.sourceforge.net/DTD/sodipodi-0.dtd"
   xmlns:inkscape="http://www.inkscape.org/namespaces/inkscape"
   width="500"
   height="500"
   id="svg2"
   version="1.1"
   inkscape:version="0.48.3.1 r9886"
   sodipodi:docname="ic_launcher_modeling_gordon_black.svg"
   inkscape:export-filename="D:\ic_launcher_anchor_mdpi.png"
   inkscape:export-xdpi="8.6400003"
   inkscape:export-ydpi="8.6400003">
  <defs
     id="defs4">
    <linearGradient
       id="linearGradient3791">
      <stop
         style="stop-color:#ffffff;stop-opacity:1;"
         offset="0"
         id="stop3793" />
      <stop
         style="stop-color:#ffffff;stop-opacity:0;"
         offset="1"
         id="stop3795" />
    </linearGradient>
    <linearGradient
       id="linearGradient3791-0">
      <stop
         style="stop-color:#ffffff;stop-opacity:1;"
         offset="0"
         id="stop3793-9" />
      <stop
         style="stop-color:#ffffff;stop-opacity:0;"
         offset="1"
         id="stop3795-4" />
    </linearGradient>
    <linearGradient
       id="linearGradient3791-1">
      <stop
         style="stop-color:#ffffff;stop-opacity:1;"
         offset="0"
         id="stop3793-5" />
      <stop
         style="stop-color:#ffffff;stop-opacity:0;"
         offset="1"
         id="stop3795-2" />
    </linearGradient>
    <linearGradient
       inkscape:collect="always"
       xlink:href="#linearGradient3791-1"
       id="linearGradient4002"
       x1="754.60175"
       y1="-72.234375"
       x2="752.34906"
       y2="169.1942"
       gradientUnits="userSpaceOnUse"
       gradientTransform="matrix(1.0433213,0,0,1.0042029,-536.90863,856.70711)" />
  </defs>
  <sodipodi:namedview
     id="base"
     pagecolor="#ffffff"
     bordercolor="#666666"
     borderopacity="1.0"
     inkscape:pageopacity="0.0"
     inkscape:pageshadow="2"
     inkscape:zoom="0.49497476"
     inkscape:cx="500.6254"
     inkscape:cy="307.08951"
     inkscape:document-units="px"
     inkscape:current-layer="layer1"
     showgrid="false"
     inkscape:window-width="830"
     inkscape:window-height="691"
     inkscape:window-x="0"
     inkscape:window-y="24"
     inkscape:window-maximized="0" />
  <metadata
     id="metadata7">
    <rdf:RDF>
      <cc:Work
         rdf:about="">
        <dc:format>image/svg+xml</dc:format>
        <dc:type
           rdf:resource="http://purl.org/dc/dcmitype/StillImage" />
        <dc:title />
      </cc:Work>
    </rdf:RDF>
  </metadata>
  <g
     inkscape:label="Layer 1"
     inkscape:groupmode="layer"
     id="layer1"
     transform="translate(0,-552.36218)">
    <path
       style="font-size:93.74341583px;font-style:normal;font-weight:normal;line-height:125%;letter-spacing:0px;word-spacing:0px;fill:#000000;fill-opacity:1;stroke:none;font-family:Sans"
       d="m 107.93103,665.13175 c -16.260838,9.81197 -39.87439,12.1337 -52.092736,-7.82843 -11.439339,-20.04077 -6.217927,-54.78517 13.837143,-62.26835 11.566603,-4.40371 26.163731,-3.77349 36.024363,3.9805 -0.88626,5.64651 2.99014,20.88173 -5.0609,11.83615 -11.379858,-7.2441 -30.759057,-6.2275 -33.785467,13.08504 -3.811527,15.39734 3.722064,35.86584 17.994436,34.01626 9.727309,3.18833 8.562796,-7.26357 8.275862,-15.40886 -0.987319,-4.09907 -10.483428,2.63424 -9.533469,-3.93114 -0.0116,-5.68371 -1.481364,-13.22377 5.061473,-10.56316 6.426435,0 12.852865,0 19.279295,0 0,12.36067 0,24.72133 0,37.08199 z m 41.37932,-58.36023 c -13.4695,-0.44882 -16.84942,20.65341 -14.45679,33.9566 0.52867,14.31835 14.73116,22.70965 23.40199,13.44819 8.29504,-10.79368 8.19259,-30.54977 1.13592,-42.26435 -2.54076,-3.56089 -6.3627,-5.21518 -10.08112,-5.14044 z m 0,-14.4093 c 14.59103,-1.37499 29.21409,12.09292 30.6389,31.15884 2.90059,18.61753 -3.47941,41.51054 -19.07137,46.80477 -15.06947,6.06412 -35.33094,-0.30074 -40.65476,-21.25603 -5.43551,-19.5473 -0.9326,-46.78373 16.08518,-54.04774 4.15193,-1.93062 8.59796,-2.6597 13.00205,-2.65984 z m 65.11156,35.58425 c 13.63141,2.70043 10.71214,-25.67213 -2.1692,-19.78051 -6.49108,-2.71318 -3.97864,6.03581 -4.40281,11.04627 -1.17881,7.17371 0.6294,10.5447 6.50761,8.73424 l 0.0644,0 z m -6.57201,13.7379 c 0,9.7267 0,19.4534 0,29.18011 -5.20622,0 -10.41244,0 -15.61866,0 0,-25.7026 0,-51.4052 0,-77.1078 12.73394,0.71108 25.86553,-2.00262 38.19978,2.87609 13.18647,6.31894 11.0936,34.91665 -2.86509,38.18265 10.16036,4.57351 12.22752,19.99341 17.26599,30.66434 5.01896,7.50881 -2.50295,5.08764 -6.59189,5.38472 -4.38706,0.0978 -9.45529,1.58694 -10.18525,-5.78505 -4.22795,-8.87829 -6.12632,-24.32417 -16.50604,-23.39506 -1.23294,0 -2.46589,0 -3.69884,0 z m 63.93509,-32.89865 c 0,15.68323 0,31.36647 0,47.04971 9.61677,0.97167 22.20084,-1.46509 24.5607,-15.73432 4.30983,-15.76525 -5.37625,-33.74132 -18.96231,-31.31539 -1.86613,0 -3.73226,0 -5.59839,0 z m -15.61865,-15.02904 c 15.42225,0.89866 32.56505,-3.49009 46.06487,8.22469 17.97915,16.71061 13.31053,59.47829 -9.14804,66.40409 -12.08811,3.67561 -24.60402,2.14559 -36.91683,2.47902 0,-25.7026 0,-51.4052 0,-77.1078 z m 96.63286,13.01484 c -13.4695,-0.44882 -16.84941,20.65341 -14.45679,33.9566 0.52867,14.31835 14.73117,22.70965 23.40199,13.44819 8.29504,-10.79368 8.1926,-30.54977 1.13592,-42.26435 -2.54075,-3.56089 -6.3627,-5.21518 -10.08112,-5.14044 z m 0,-14.4093 c 14.59104,-1.37499 29.2141,12.09292 30.6389,31.15884 2.9006,18.61753 -3.4794,41.51054 -19.07137,46.80477 -15.06946,6.06412 -35.33094,-0.30074 -40.65475,-21.25603 -5.43552,-19.5473 -0.9326,-46.78373 16.08518,-54.04774 4.15193,-1.93062 8.59795,-2.6597 13.00204,-2.65984 z m 42.92089,1.39446 c 5.81474,0 11.62949,0 17.44423,0 7.3428,17.62857 14.68559,35.25714 22.02839,52.88572 0,-17.62858 0,-35.25715 0,-52.88572 4.93577,0 9.87154,0 14.8073,0 0,25.7026 0,51.4052 0,77.1078 -5.81474,0 -11.62947,0 -17.44421,0 -7.3428,-17.62857 -14.6856,-35.25715 -22.0284,-52.88573 0,17.62858 0,35.25716 0,52.88573 -4.93577,0 -9.87154,0 -14.80731,0 0,-25.7026 0,-51.4052 0,-77.1078 z"
       id="text3007-0"
       inkscape:connector-curvature="0" />
    <path
       style="fill:#969696;fill-opacity:1;fill-rule:nonzero;stroke:none;opacity:1"
       d="m 250,702.3622 c -82.84271,0 -150,67.15728 -150,149.99999 0,82.84269 67.15729,150.00001 150,150.00001 82.84271,0 150,-67.15732 150,-150.00001 C 400,769.51948 332.84271,702.3622 250,702.3622 z m -79.79568,73.26923 40.16827,0 39.08655,113.0769 0.64903,0 39.41106,-113.0769 40.27645,0 0,153.46151 -30.79328,0 0,-45.7572 2.95673,-67.7524 -0.64903,-0.10817 -41.06972,113.61777 -20.66105,0 -40.88943,-113.18508 -0.64903,0.10817 2.95673,67.31971 0,45.7572 -30.79328,0 0,-153.46151 z"
       id="path3010"
       inkscape:connector-curvature="0" />
  </g>
</svg>
