<?xml version="1.0" encoding="UTF-8" standalone="no"?>
<!-- Created with Inkscape (http://www.inkscape.org/) -->

<svg
   xmlns:dc="http://purl.org/dc/elements/1.1/"
   xmlns:cc="http://creativecommons.org/ns#"
   xmlns:rdf="http://www.w3.org/1999/02/22-rdf-syntax-ns#"
   xmlns:svg="http://www.w3.org/2000/svg"
   xmlns="http://www.w3.org/2000/svg"
   xmlns:xlink="http://www.w3.org/1999/xlink"
   xmlns:sodipodi="http://sodipodi.sourceforge.net/DTD/sodipodi-0.dtd"
   xmlns:inkscape="http://www.inkscape.org/namespaces/inkscape"
   width="500"
   height="500"
   id="svg2"
   version="1.1"
   inkscape:version="0.48.3.1 r9886"
   sodipodi:docname="ic_launcher_modeling_gordon_white.svg"
   inkscape:export-filename="D:\ic_launcher_anchor_mdpi.png"
   inkscape:export-xdpi="8.6400003"
   inkscape:export-ydpi="8.6400003">
  <defs
     id="defs4">
    <linearGradient
       id="linearGradient3791">
      <stop
         style="stop-color:#ffffff;stop-opacity:1;"
         offset="0"
         id="stop3793" />
      <stop
         style="stop-color:#ffffff;stop-opacity:0;"
         offset="1"
         id="stop3795" />
    </linearGradient>
    <linearGradient
       id="linearGradient3791-0">
      <stop
         style="stop-color:#ffffff;stop-opacity:1;"
         offset="0"
         id="stop3793-9" />
      <stop
         style="stop-color:#ffffff;stop-opacity:0;"
         offset="1"
         id="stop3795-4" />
    </linearGradient>
    <linearGradient
       id="linearGradient3791-1">
      <stop
         style="stop-color:#ffffff;stop-opacity:1;"
         offset="0"
         id="stop3793-5" />
      <stop
         style="stop-color:#ffffff;stop-opacity:0;"
         offset="1"
         id="stop3795-2" />
    </linearGradient>
    <linearGradient
       inkscape:collect="always"
       xlink:href="#linearGradient3791-1"
       id="linearGradient4002"
       x1="754.60175"
       y1="-72.234375"
       x2="752.34906"
       y2="169.1942"
       gradientUnits="userSpaceOnUse"
       gradientTransform="matrix(1.0433213,0,0,1.0042029,-536.90863,856.70711)" />
  </defs>
  <sodipodi:namedview
     id="base"
     pagecolor="#ffffff"
     bordercolor="#666666"
     borderopacity="1.0"
     inkscape:pageopacity="0.0"
     inkscape:pageshadow="2"
     inkscape:zoom="0.49497476"
     inkscape:cx="449.52129"
     inkscape:cy="356.97693"
     inkscape:document-units="px"
     inkscape:current-layer="layer1"
     showgrid="false"
     inkscape:window-width="810"
     inkscape:window-height="678"
     inkscape:window-x="0"
     inkscape:window-y="37"
     inkscape:window-maximized="0" />
  <metadata
     id="metadata7">
    <rdf:RDF>
      <cc:Work
         rdf:about="">
        <dc:format>image/svg+xml</dc:format>
        <dc:type
           rdf:resource="http://purl.org/dc/dcmitype/StillImage" />
        <dc:title />
      </cc:Work>
    </rdf:RDF>
  </metadata>
  <g
     inkscape:label="Layer 1"
     inkscape:groupmode="layer"
     id="layer1"
     transform="translate(0,-552.36218)">
    <path
       style="font-size:93.80198669px;font-style:normal;font-weight:normal;line-height:125%;letter-spacing:0px;word-spacing:0px;fill:#000000;fill-opacity:1;stroke:none;font-family:Sans"
       d="m 107.93103,665.12272 c -16.260833,9.82423 -39.874391,12.14887 -52.092736,-7.83821 -11.439341,-20.06582 -6.217929,-54.85366 13.837143,-62.34618 11.566703,-4.40936 26.162949,-3.77784 36.024353,3.98494 -0.88506,5.65623 2.98777,20.90319 -5.06088,11.85147 -11.379872,-7.25316 -30.759069,-6.23529 -33.785479,13.1014 -3.811526,15.41659 3.722065,35.91067 17.994437,34.05879 9.723704,3.19124 8.564302,-7.26575 8.275864,-15.42017 -0.977004,-4.11946 -10.481627,2.63099 -9.533471,-3.94242 -0.01023,-5.68837 -1.482258,-13.24003 5.058554,-10.57796 6.42741,0 12.854815,0 19.282215,0 0,12.37612 0,24.75223 0,37.12834 z m 41.37932,-58.43318 c -13.4695,-0.44938 -16.84941,20.67923 -14.45679,33.99905 0.52867,14.33625 14.73117,22.73805 23.402,13.46499 8.29503,-10.80718 8.19259,-30.58795 1.13591,-42.31718 -2.54076,-3.56533 -6.3627,-5.22168 -10.08112,-5.14686 z m 0,-14.42731 c 14.59103,-1.3767 29.2141,12.10803 30.63891,31.19779 2.90059,18.6408 -3.47941,41.56243 -19.07138,46.86327 -15.06947,6.0717 -35.33094,-0.30111 -40.65476,-21.28261 -5.43551,-19.57171 -0.9326,-46.8422 16.08518,-54.11528 4.15194,-1.93304 8.59795,-2.66304 13.00205,-2.66317 z m 65.11156,35.62873 c 13.63046,2.70437 10.71305,-25.70307 -2.16795,-19.80523 -6.48842,-2.71479 -3.98209,6.03575 -4.40406,11.05371 -1.17461,7.17783 0.62335,10.56663 6.50386,8.75152 l 0.0682,0 z m -6.57201,13.75507 c 0,9.73886 0,19.47773 0,29.21659 -5.20621,0 -10.41243,0 -15.61866,0 0,-25.73473 0,-51.46946 0,-77.2042 12.73487,0.71181 25.86326,-2.00477 38.19977,2.87968 13.18648,6.32686 11.0936,34.9603 -2.86508,38.23039 10.15813,4.57697 12.22556,20.01151 17.26231,30.69315 5.01644,7.51707 -2.4845,5.11039 -6.58321,5.40098 -4.38662,0.0956 -9.45759,1.59079 -10.18897,-5.78894 -4.22864,-8.89032 -6.12642,-24.35724 -16.5069,-23.42765 -1.23308,0 -2.46617,0 -3.69926,0 z m 63.9351,-32.93977 c 0,15.70284 0,31.40568 0,47.10853 9.61676,0.97296 22.20084,-1.46696 24.56069,-15.75399 4.30984,-15.78496 -5.37624,-33.78351 -18.96232,-31.35454 -1.86612,0 -3.73225,0 -5.59837,0 z m -15.61866,-15.04784 c 15.42235,0.89959 32.565,-3.49435 46.06487,8.23499 17.97916,16.73149 13.31053,59.55262 -9.14804,66.48709 -12.08811,3.68017 -24.60401,2.14831 -36.91683,2.48212 0,-25.73473 0,-51.46946 0,-77.2042 z m 96.63286,13.03112 c -13.46949,-0.44938 -16.84941,20.67923 -14.45679,33.99905 0.52867,14.33625 14.73117,22.73805 23.402,13.46499 8.29504,-10.80718 8.19259,-30.58795 1.13591,-42.31718 -2.54076,-3.56533 -6.3627,-5.22168 -10.08112,-5.14686 z m 0,-14.42731 c 14.59103,-1.3767 29.21409,12.10803 30.6389,31.19779 2.9006,18.6408 -3.47941,41.56243 -19.07137,46.86327 -15.06946,6.0717 -35.33094,-0.30111 -40.65476,-21.28261 -5.43551,-19.57171 -0.9326,-46.8422 16.08518,-54.11528 4.15194,-1.93304 8.59795,-2.66304 13.00205,-2.66317 z m 42.92088,1.39619 c 5.81474,0 11.62948,0 17.44422,0 7.3428,17.65062 14.6856,35.30123 22.0284,52.95185 0,-17.65062 0,-35.30123 0,-52.95185 4.93576,0 9.87153,0 14.8073,0 0,25.73474 0,51.46947 0,77.2042 -5.81474,0 -11.62948,0 -17.44422,0 -7.3428,-17.65062 -14.6856,-35.30122 -22.0284,-52.95184 0,17.65062 0,35.30122 0,52.95184 -4.93577,0 -9.87153,0 -14.8073,0 0,-25.73473 0,-51.46946 0,-77.2042 z"
       id="text3007-0"
       inkscape:connector-curvature="0" />
    <path
       style="fill:#e1e1e1;fill-opacity:1;fill-rule:nonzero;stroke:none;opacity:1"
       d="m 250,702.3622 c -82.84271,0 -150,67.15728 -150,149.99999 0,82.84269 67.15729,150.00001 150,150.00001 82.84271,0 150,-67.15732 150,-150.00001 C 400,769.51948 332.84271,702.3622 250,702.3622 z m -79.79568,73.26923 40.16827,0 39.08655,113.0769 0.64903,0 39.41106,-113.0769 40.27645,0 0,153.46151 -30.79328,0 0,-45.7572 2.95673,-67.7524 -0.64903,-0.10817 -41.06972,113.61777 -20.66105,0 -40.88943,-113.18508 -0.64903,0.10817 2.95673,67.31971 0,45.7572 -30.79328,0 0,-153.46151 z"
       id="path3010"
       inkscape:connector-curvature="0" />
  </g>
</svg>
