<?xml version="1.0" encoding="UTF-8" standalone="no"?>
<!-- Created with Inkscape (http://www.inkscape.org/) -->

<svg
   xmlns:dc="http://purl.org/dc/elements/1.1/"
   xmlns:cc="http://creativecommons.org/ns#"
   xmlns:rdf="http://www.w3.org/1999/02/22-rdf-syntax-ns#"
   xmlns:svg="http://www.w3.org/2000/svg"
   xmlns="http://www.w3.org/2000/svg"
   xmlns:xlink="http://www.w3.org/1999/xlink"
   xmlns:sodipodi="http://sodipodi.sourceforge.net/DTD/sodipodi-0.dtd"
   xmlns:inkscape="http://www.inkscape.org/namespaces/inkscape"
   width="500"
   height="500"
   id="svg2"
   version="1.1"
   inkscape:version="0.48.3.1 r9886"
   sodipodi:docname="ic_launcher_tricksoflanguage.svg"
   inkscape:export-filename="D:\ic_launcher_tricksoflanguage_mdpi.png"
   inkscape:export-xdpi="8.6400003"
   inkscape:export-ydpi="8.6400003">
  <defs
     id="defs4">
    <linearGradient
       id="linearGradient3791">
      <stop
         style="stop-color:#ffffff;stop-opacity:1;"
         offset="0"
         id="stop3793" />
      <stop
         style="stop-color:#ffffff;stop-opacity:0;"
         offset="1"
         id="stop3795" />
    </linearGradient>
    <linearGradient
       id="linearGradient3791-0">
      <stop
         style="stop-color:#ffffff;stop-opacity:1;"
         offset="0"
         id="stop3793-9" />
      <stop
         style="stop-color:#ffffff;stop-opacity:0;"
         offset="1"
         id="stop3795-4" />
    </linearGradient>
    <linearGradient
       id="linearGradient3791-1">
      <stop
         style="stop-color:#ffffff;stop-opacity:1;"
         offset="0"
         id="stop3793-5" />
      <stop
         style="stop-color:#ffffff;stop-opacity:0;"
         offset="1"
         id="stop3795-2" />
    </linearGradient>
    <linearGradient
       inkscape:collect="always"
       xlink:href="#linearGradient3791-1"
       id="linearGradient4002"
       x1="754.60175"
       y1="-72.234375"
       x2="752.34906"
       y2="169.1942"
       gradientUnits="userSpaceOnUse"
       gradientTransform="matrix(1.0433213,0,0,1.0042029,-536.90863,856.70711)" />
  </defs>
  <sodipodi:namedview
     id="base"
     pagecolor="#ffffff"
     bordercolor="#666666"
     borderopacity="1.0"
     inkscape:pageopacity="0.0"
     inkscape:pageshadow="2"
     inkscape:zoom="0.49497475"
     inkscape:cx="558.91202"
     inkscape:cy="251.87987"
     inkscape:document-units="px"
     inkscape:current-layer="layer1"
     showgrid="false"
     inkscape:window-width="1366"
     inkscape:window-height="692"
     inkscape:window-x="0"
     inkscape:window-y="24"
     inkscape:window-maximized="1" />
  <metadata
     id="metadata7">
    <rdf:RDF>
      <cc:Work
         rdf:about="">
        <dc:format>image/svg+xml</dc:format>
        <dc:type
           rdf:resource="http://purl.org/dc/dcmitype/StillImage" />
        <dc:title />
      </cc:Work>
    </rdf:RDF>
  </metadata>
  <g
     inkscape:label="Layer 1"
     inkscape:groupmode="layer"
     id="layer1"
     transform="translate(0,-552.36218)">
    <path
       style="font-size:102.93325043px;font-style:normal;font-weight:normal;line-height:125%;letter-spacing:0px;word-spacing:0px;fill:#000000;fill-opacity:1;stroke:none;font-family:Sans"
       d="m 50,930.09763 c 7.988914,0 15.977826,0 23.96674,0 5.543328,13.75511 11.086655,27.51022 16.629983,41.26534 5.575936,-13.75512 11.151877,-27.51023 16.727807,-41.26534 7.97261,0 15.94522,0 23.91782,0 0,25.7026 0,51.40521 0,77.10777 -5.93462,0 -11.86923,0 -17.80385,0 0,-18.79918 0,-37.5984 0,-56.39763 -5.60855,13.8584 -11.21709,27.71681 -16.825636,41.57521 -5.388868,-0.68051 -13.357909,2.76596 -14.099046,-5.34858 -4.887014,-12.07554 -9.774028,-24.15109 -14.661042,-36.22663 0,18.79923 0,37.59845 0,56.39763 -5.950925,0 -11.901851,0 -17.852776,0 0,-25.70256 0,-51.40517 0,-77.10777 z m 133.13769,13.01485 c -16.23982,-0.44883 -20.31489,20.65341 -17.43017,33.9566 0.6374,14.31835 17.76098,22.70966 28.21517,13.44818 10.00111,-10.79368 9.87759,-30.54976 1.36954,-42.26435 -3.06332,-3.56088 -7.67133,-5.21517 -12.15454,-5.14043 z m 0,-14.40929 c 18.35498,-1.41964 36.32861,13.37381 37.21337,33.28056 3.14363,19.50721 -6.94902,42.50195 -26.95342,45.68045 -18.70082,4.7551 -42.28913,-4.2363 -46.421,-26.04622 -5.24701,-20.17609 2.57084,-46.66684 24.0508,-51.41862 3.95035,-1.069 8.03838,-1.49558 12.11025,-1.49617 z m 51.74859,1.39444 c 6.277,0 12.554,0 18.83102,0 0.36372,18.13195 -0.80202,36.37052 0.73365,54.42222 5.63347,19.89485 30.97757,5.47509 24.5537,-12.07649 0,-14.11524 0,-28.23049 0,-42.34573 6.277,0 12.554,0 18.83101,0 -0.4705,19.09906 1.08911,38.3556 -1.09369,57.32571 -3.97489,22.10616 -30.57799,24.98146 -47.10424,18.15286 -16.86914,-7.52773 -14.76153,-28.75643 -14.75145,-44.76577 0,-10.23761 0,-20.4752 0,-30.7128 z m 72.68281,0 c 22.43417,0 44.86835,0 67.30252,0 -1.39179,4.50949 3.06068,15.18997 -2.75424,15.02906 -7.15236,0 -14.3047,0 -21.45705,0 0,20.69291 0,41.38583 0,62.07871 -6.27701,0 -12.55401,0 -18.83102,0 0,-20.69288 0,-41.3858 0,-62.07871 -8.08673,0 -16.17347,0 -24.26021,0 0,-5.00969 0,-10.01938 0,-15.02906 z m 76.98704,0 c 6.27701,0 12.55401,0 18.83101,0 0,9.79557 0,19.59113 0,29.3867 9.26062,0 18.52124,0 27.78185,0 0,-9.79557 0,-19.59113 0,-29.3867 6.27701,0 12.55402,0 18.83102,0 0,25.7026 0,51.40521 0,77.10777 -6.277,0 -12.55401,0 -18.83102,0 0,-10.89731 0,-21.79466 0,-32.69202 -9.26061,0 -18.52123,0 -27.78185,0 0,10.89736 0,21.79471 0,32.69202 -6.277,0 -12.554,0 -18.83101,0 0,-25.70256 0,-51.40517 0,-77.10777 z"
       id="text3007-1"
       inkscape:connector-curvature="0" />
    <g
       id="g3872"
       transform="matrix(0.91179072,-0.52642263,0.52642263,0.91179072,46.342043,-32.628772)">
      <rect
         ry="0"
         rx="14.163412"
         y="681.46918"
         x="-171.89297"
         height="218.02197"
         width="11.445765"
         id="rect3032"
         style="fill:#969696;fill-opacity:1;stroke:#646464;stroke-width:4.30685472;stroke-linecap:square;stroke-linejoin:round;stroke-miterlimit:4;stroke-opacity:1;stroke-dasharray:none" />
      <path
         inkscape:transform-center-y="-3.1075803"
         transform="translate(53.033008,545.66992)"
         d="m -219.20309,41.260536 11.37537,39.138459 37.69211,-15.508803 -23.50725,33.296054 35.62592,19.799294 -40.68844,2.38104 6.73268,40.19813 -27.23039,-30.32695 -27.2304,30.32695 6.73268,-40.19812 -40.68844,-2.38105 35.62592,-19.799293 -23.50725,-33.296058 37.69211,15.508807 z"
         inkscape:randomized="0"
         inkscape:rounded="0"
         inkscape:flatsided="false"
         sodipodi:arg2="-1.1219974"
         sodipodi:arg1="-1.5707963"
         sodipodi:r2="26.217562"
         sodipodi:r1="62.759666"
         sodipodi:cy="104.0202"
         sodipodi:cx="-219.20309"
         sodipodi:sides="7"
         id="path3036"
         style="fill:#969696;fill-opacity:1;stroke:#646464;stroke-width:5;stroke-linecap:square;stroke-linejoin:round;stroke-miterlimit:4;stroke-opacity:1;stroke-dasharray:none"
         sodipodi:type="star" />
      <path
         transform="matrix(1,0,0,0.20869568,-5.0000003,575.77833)"
         d="m -152.85715,-23.214287 c 0,22.68312475 -3.99746,41.07143 -8.92857,41.07143 -4.93111,0 -8.92857,-18.38830525 -8.92857,-41.07143 0,-22.683124 3.99746,-41.07143 8.92857,-41.07143 4.93111,0 8.92857,18.388306 8.92857,41.07143 z"
         sodipodi:ry="41.07143"
         sodipodi:rx="8.9285717"
         sodipodi:cy="-23.214287"
         sodipodi:cx="-161.78572"
         id="path3806"
         style="fill:#969696;fill-opacity:1;fill-rule:nonzero;stroke:none"
         sodipodi:type="arc" />
      <path
         transform="matrix(1,0,0,0.20869568,60.357149,604.34976)"
         d="m -152.85715,-23.214287 c 0,22.68312475 -3.99746,41.07143 -8.92857,41.07143 -4.93111,0 -8.92857,-18.38830525 -8.92857,-41.07143 0,-22.683124 3.99746,-41.07143 8.92857,-41.07143 4.93111,0 8.92857,18.388306 8.92857,41.07143 z"
         sodipodi:ry="41.07143"
         sodipodi:rx="8.9285717"
         sodipodi:cy="-23.214287"
         sodipodi:cx="-161.78572"
         id="path3806-8"
         style="fill:#969696;fill-opacity:1;fill-rule:nonzero;stroke:none"
         sodipodi:type="arc" />
      <path
         transform="matrix(1,0,0,0.20869568,72.500007,672.92119)"
         d="m -152.85715,-23.214287 c 0,22.68312475 -3.99746,41.07143 -8.92857,41.07143 -4.93111,0 -8.92857,-18.38830525 -8.92857,-41.07143 0,-22.683124 3.99746,-41.07143 8.92857,-41.07143 4.93111,0 8.92857,18.388306 8.92857,41.07143 z"
         sodipodi:ry="41.07143"
         sodipodi:rx="8.9285717"
         sodipodi:cy="-23.214287"
         sodipodi:cx="-161.78572"
         id="path3806-82"
         style="fill:#969696;fill-opacity:1;fill-rule:nonzero;stroke:none"
         sodipodi:type="arc" />
      <path
         transform="matrix(1,0,0,0.20869568,29.642864,725.77833)"
         d="m -152.85715,-23.214287 c 0,22.68312475 -3.99746,41.07143 -8.92857,41.07143 -4.93111,0 -8.92857,-18.38830525 -8.92857,-41.07143 0,-22.683124 3.99746,-41.07143 8.92857,-41.07143 4.93111,0 8.92857,18.388306 8.92857,41.07143 z"
         sodipodi:ry="41.07143"
         sodipodi:rx="8.9285717"
         sodipodi:cy="-23.214287"
         sodipodi:cx="-161.78572"
         id="path3806-4"
         style="fill:#969696;fill-opacity:1;fill-rule:nonzero;stroke:none"
         sodipodi:type="arc" />
      <path
         transform="matrix(1,0,0,0.20869568,-41.071422,723.63547)"
         d="m -152.85715,-23.214287 c 0,22.68312475 -3.99746,41.07143 -8.92857,41.07143 -4.93111,0 -8.92857,-18.38830525 -8.92857,-41.07143 0,-22.683124 3.99746,-41.07143 8.92857,-41.07143 4.93111,0 8.92857,18.388306 8.92857,41.07143 z"
         sodipodi:ry="41.07143"
         sodipodi:rx="8.9285717"
         sodipodi:cy="-23.214287"
         sodipodi:cx="-161.78572"
         id="path3806-5"
         style="fill:#969696;fill-opacity:1;fill-rule:nonzero;stroke:none"
         sodipodi:type="arc" />
      <path
         transform="matrix(1,0,0,0.20869568,-80.357136,672.2069)"
         d="m -152.85715,-23.214287 c 0,22.68312475 -3.99746,41.07143 -8.92857,41.07143 -4.93111,0 -8.92857,-18.38830525 -8.92857,-41.07143 0,-22.683124 3.99746,-41.07143 8.92857,-41.07143 4.93111,0 8.92857,18.388306 8.92857,41.07143 z"
         sodipodi:ry="41.07143"
         sodipodi:rx="8.9285717"
         sodipodi:cy="-23.214287"
         sodipodi:cx="-161.78572"
         id="path3806-51"
         style="fill:#969696;fill-opacity:1;fill-rule:nonzero;stroke:none"
         sodipodi:type="arc" />
      <path
         transform="matrix(1,0,0,0.20869568,-68.928565,606.49262)"
         d="m -152.85715,-23.214287 c 0,22.68312475 -3.99746,41.07143 -8.92857,41.07143 -4.93111,0 -8.92857,-18.38830525 -8.92857,-41.07143 0,-22.683124 3.99746,-41.07143 8.92857,-41.07143 4.93111,0 8.92857,18.388306 8.92857,41.07143 z"
         sodipodi:ry="41.07143"
         sodipodi:rx="8.9285717"
         sodipodi:cy="-23.214287"
         sodipodi:cx="-161.78572"
         id="path3806-7"
         style="fill:#969696;fill-opacity:1;fill-rule:nonzero;stroke:none"
         sodipodi:type="arc" />
    </g>
    <path
       style="font-size:78.5896225px;font-style:normal;font-weight:normal;line-height:125%;letter-spacing:0px;word-spacing:0px;fill:#000000;fill-opacity:1;stroke:none;font-family:Sans"
       d="m 228.60294,862.72845 c -17.46521,0.63177 -18.50427,34.43201 -3.05378,39.36749 21.18011,5.36448 22.77003,-39.58012 3.05378,-39.36749 z m 0,-11.1749 c 20.11446,-2.31164 33.11536,21.58082 27.18057,41.03722 -5.30657,28.15675 -49.04921,28.145 -54.36117,0 -5.48613,-19.99587 6.44203,-42.92047 27.1806,-41.03722 z M 267.5,852.63499 c 12.73284,0 25.46568,0 38.19853,0 -0.0607,6.11662 1.95004,14.49005 -6.32688,11.65554 -5.90574,0 -11.81149,0 -17.71724,0 -0.0482,6.06169 -1.80884,13.98909 6.32687,11.13484 5.42781,0 10.85562,0 16.28342,0 -0.0607,6.11663 1.95004,14.49007 -6.32687,11.65555 -5.4278,0 -10.85562,0 -16.28342,0 0,8.45126 0,16.90253 0,25.3538 -4.26966,-1.47328 -14.22857,3.2516 -14.15441,-2.95406 0,-18.94856 0,-37.89712 0,-56.84567 z"
       id="text3007-4-4"
       inkscape:connector-curvature="0" />
    <path
       style="font-size:95.10845947px;font-style:normal;font-weight:normal;line-height:125%;letter-spacing:0px;word-spacing:0px;fill:#000000;fill-opacity:1;stroke:none;font-family:Sans"
       d="m 95.098654,762.52495 c -0.495039,8.03526 2.947917,22.5367 -7.563446,12.84381 -8.69868,-8.31317 -33.847615,2.94325 -16.614458,12.95028 11.185678,3.03631 27.484435,4.62388 28.201663,22.82277 3.042757,21.48825 -16.435603,31.19785 -30.675829,27.21271 -10.652298,-0.24809 -21.370553,-3.74883 -17.90373,-18.81669 3.89256,-4.04353 33.427007,17.28529 32.675616,-6.81272 -8.219435,-10.21131 -24.002656,-4.73767 -30.799119,-18.44093 -7.939332,-15.92003 3.16772,-37.18573 18.145158,-35.48419 8.272077,-0.48017 16.550251,1.14085 24.534145,3.72496 z m 18.248256,-2.42737 c 5.35894,0 10.71789,0 16.07684,0 0,20.69292 0,41.38584 0,62.07876 9.40947,0 18.81894,0 28.22841,0 -1.2799,4.82559 3.13268,16.69165 -3.39317,15.02906 -13.63736,0 -27.27472,0 -40.91208,0 0,-25.70261 0,-51.40521 0,-77.10782 z m 54.45245,0 c 14.46219,0 28.92438,0 43.38658,0 -1.27991,4.82559 3.13268,16.69165 -3.39317,15.02905 -7.9722,0 -15.94438,0 -23.91658,0 1.03683,5.25216 -3.02992,16.8164 4.24147,14.35765 7.14657,0 14.29314,0 21.43971,0 -1.2799,4.82559 3.13269,16.69164 -3.39317,15.02905 -7.42933,0 -14.85867,0 -22.28801,0 1.01142,5.3362 -2.10019,15.77176 1.69659,17.66301 8.84394,0 17.68789,0 26.53183,0 -1.27991,4.82559 3.13269,16.69165 -3.39317,15.02906 -13.63736,0 -27.27472,0 -40.91208,0 0,-25.70261 0,-51.40521 0,-77.10782 z m 58.46121,0 c 5.35895,0 10.7179,0 16.07684,0 0,25.70261 0,51.40521 0,77.10782 -5.35894,0 -10.71789,0 -16.07684,0 0,-25.70261 0,-51.40521 0,-77.10782 z m 87.94238,71.37508 c -17.74852,10.77162 -45.38389,12.03814 -56.0745,-12.68236 -9.01632,-21.65697 -1.12709,-54.02184 19.97729,-58.58372 10.25181,-1.58779 31.39618,-5.03859 33.80051,9.47511 3.71126,20.06577 -11.66468,0.14297 -20.71197,3.43074 -14.83685,-2.04902 -23.37765,18.14539 -19.29744,34.01228 1.01287,15.09111 20.23258,22.72073 27.06443,13.46976 -0.56308,-5.69494 2.53182,-15.91406 -5.08976,-12.87907 -7.44406,2.81795 -3.96637,-7.87211 -4.72337,-13.32473 8.3516,0 16.7032,0 25.05481,0 0,12.36067 0,24.72133 0,37.08199 z m 14.11421,-71.37508 c 5.35894,0 10.71789,0 16.07684,0 0,9.79557 0,19.59114 0,29.3867 7.90617,0 15.81236,0 23.71854,0 0,-9.79556 0,-19.59113 0,-29.3867 5.35895,0 10.71789,0 16.07684,0 0,25.70261 0,51.40521 0,77.10782 -5.35895,0 -10.71789,0 -16.07684,0 0,-10.89737 0,-21.79472 0,-32.69207 -7.90618,0 -15.81237,0 -23.71854,0 0,10.89735 0,21.7947 0,32.69207 -5.35895,0 -10.7179,0 -16.07684,0 0,-25.70261 0,-51.40521 0,-77.10782 z m 64.22383,0 c 19.153,0 38.30601,0 57.45902,0 -1.27991,4.82559 3.13269,16.69165 -3.39317,15.02905 -5.75902,0 -11.51803,0 -17.27705,0 0,20.69293 0,41.38585 0,62.07877 -5.35895,0 -10.71788,0 -16.07683,0 0,-20.69292 0,-41.38584 0,-62.07877 -6.90399,0 -13.80799,0 -20.71197,0 0,-5.00968 0,-10.01936 0,-15.02905 z"
       id="text3007-8-9"
       inkscape:connector-curvature="0" />
  </g>
</svg>
