<?xml version="1.0" encoding="UTF-8" standalone="no"?>
<!-- Created with Inkscape (http://www.inkscape.org/) -->

<svg
   xmlns:dc="http://purl.org/dc/elements/1.1/"
   xmlns:cc="http://creativecommons.org/ns#"
   xmlns:rdf="http://www.w3.org/1999/02/22-rdf-syntax-ns#"
   xmlns:svg="http://www.w3.org/2000/svg"
   xmlns="http://www.w3.org/2000/svg"
   xmlns:xlink="http://www.w3.org/1999/xlink"
   xmlns:sodipodi="http://sodipodi.sourceforge.net/DTD/sodipodi-0.dtd"
   xmlns:inkscape="http://www.inkscape.org/namespaces/inkscape"
   width="500"
   height="500"
   id="svg2"
   version="1.1"
   inkscape:version="0.48.3.1 r9886"
   sodipodi:docname="ic_launcher_vk_dissiciation.svg"
   inkscape:export-filename="D:\ic_launcher_vk_dissiciation_xxhdpi.png"
   inkscape:export-xdpi="28.173912"
   inkscape:export-ydpi="28.173912">
  <defs
     id="defs4">
    <linearGradient
       id="linearGradient3791">
      <stop
         style="stop-color:#ffffff;stop-opacity:1;"
         offset="0"
         id="stop3793" />
      <stop
         style="stop-color:#ffffff;stop-opacity:0;"
         offset="1"
         id="stop3795" />
    </linearGradient>
    <linearGradient
       id="linearGradient3791-0">
      <stop
         style="stop-color:#ffffff;stop-opacity:1;"
         offset="0"
         id="stop3793-9" />
      <stop
         style="stop-color:#ffffff;stop-opacity:0;"
         offset="1"
         id="stop3795-4" />
    </linearGradient>
    <linearGradient
       id="linearGradient3791-1">
      <stop
         style="stop-color:#ffffff;stop-opacity:1;"
         offset="0"
         id="stop3793-5" />
      <stop
         style="stop-color:#ffffff;stop-opacity:0;"
         offset="1"
         id="stop3795-2" />
    </linearGradient>
    <linearGradient
       inkscape:collect="always"
       xlink:href="#linearGradient3791-1"
       id="linearGradient4002"
       x1="754.60175"
       y1="-72.234375"
       x2="752.34906"
       y2="169.1942"
       gradientUnits="userSpaceOnUse"
       gradientTransform="matrix(1.0433213,0,0,1.0042029,-536.90863,856.70711)" />
  </defs>
  <sodipodi:namedview
     id="base"
     pagecolor="#17922e"
     bordercolor="#666666"
     borderopacity="1.0"
     inkscape:pageopacity="0"
     inkscape:pageshadow="2"
     inkscape:zoom="0.35"
     inkscape:cx="179.80917"
     inkscape:cy="352.31856"
     inkscape:document-units="px"
     inkscape:current-layer="layer1"
     showgrid="false"
     inkscape:window-width="1366"
     inkscape:window-height="692"
     inkscape:window-x="0"
     inkscape:window-y="24"
     inkscape:window-maximized="1">
    <inkscape:grid
       type="xygrid"
       id="grid3778"
       empspacing="5"
       visible="true"
       enabled="true"
       snapvisiblegridlinesonly="true" />
  </sodipodi:namedview>
  <metadata
     id="metadata7">
    <rdf:RDF>
      <cc:Work
         rdf:about="">
        <dc:format>image/svg+xml</dc:format>
        <dc:type
           rdf:resource="http://purl.org/dc/dcmitype/StillImage" />
        <dc:title />
      </cc:Work>
    </rdf:RDF>
  </metadata>
  <g
     inkscape:label="Layer 1"
     inkscape:groupmode="layer"
     id="layer1"
     transform="translate(0,-552.36218)">
    <rect
       style="fill:none;fill-opacity:1;fill-rule:nonzero;stroke:#646464;stroke-opacity:1;stroke-width:5;stroke-miterlimit:4;stroke-dasharray:none"
       id="rect3025"
       width="438.57144"
       height="434.28571"
       x="32.857143"
       y="31.428572"
       transform="translate(0,552.36218)"
       rx="30"
       ry="0" />
    <path
       style="fill:none;stroke:#646464;stroke-width:5;stroke-linecap:butt;stroke-linejoin:miter;stroke-opacity:1;stroke-miterlimit:4;stroke-dasharray:none"
       d="M 131.31983,29.268914 C 128.28937,135.33493 57.578695,313.12178 57.578695,313.12178 l -1.010152,16.16244 c 0,0 46.467017,77.78175 48.487317,100.0051 2.02031,22.22336 -20.203046,4.04061 -20.203046,4.04061 l -3.030458,16.16244 -14.142135,-11.11168 -4.040611,13.13199 -14.142135,-8.08122 -7.071068,12.12183 -9.091373,-11.11168"
       id="path3797"
       inkscape:connector-curvature="0"
       transform="translate(0,552.36218)" />
    <path
       style="fill:none;stroke:#646464;stroke-width:4.796;stroke-linecap:butt;stroke-linejoin:bevel;stroke-miterlimit:4;stroke-opacity:1;stroke-dasharray:none"
       d="m 34.243042,867.40212 21.164954,0 -17.484092,7.14082 17.023984,2.04024 -18.404308,11.73135 18.404308,-3.5704"
       id="path3805"
       inkscape:connector-curvature="0" />
    <path
       style="fill:none;stroke:#646464;stroke-width:5;stroke-linecap:butt;stroke-linejoin:miter;stroke-miterlimit:4;stroke-opacity:1;stroke-dasharray:none"
       d="m 373.25137,585.6717 c 3.03047,106.06602 73.74114,283.85287 73.74114,283.85287 l 1.01016,16.16244 c 0,0 -46.46702,77.78175 -48.48732,100.0051 -2.02031,22.22339 20.20304,4.0406 20.20304,4.0406 l 3.03046,16.16249 14.14214,-11.11169 4.04061,13.13199 14.14213,-8.08129 7.07107,12.12189 9.09137,-11.1117"
       id="path3797-9"
       inkscape:connector-curvature="0" />
    <path
       style="fill:none;stroke:#646464;stroke-width:4.796;stroke-linecap:butt;stroke-linejoin:bevel;stroke-miterlimit:4;stroke-opacity:1;stroke-dasharray:none"
       d="m 470.32817,871.44273 -21.16496,0 17.48409,7.14082 -17.02398,2.04024 18.40431,11.73135 -18.40431,-3.5704"
       id="path3805-4"
       inkscape:connector-curvature="0" />
    <path
       style="fill:none;stroke:#969696;stroke-width:5;stroke-linecap:butt;stroke-linejoin:miter;stroke-opacity:1;stroke-miterlimit:4;stroke-dasharray:none"
       d="m 120.71429,110.71429 262.14285,0"
       id="path3830"
       inkscape:connector-curvature="0"
       transform="translate(0,552.36218)" />
    <path
       style="fill:none;stroke:#969696;stroke-width:5;stroke-linecap:butt;stroke-linejoin:miter;stroke-opacity:1;stroke-miterlimit:4;stroke-dasharray:none"
       d="m 87.857143,230 0,78.57143 326.428567,0 0,-79.28572"
       id="path3832"
       inkscape:connector-curvature="0"
       transform="translate(0,552.36218)" />
    <path
       style="font-size:72.90077972px;font-style:normal;font-weight:normal;line-height:125%;letter-spacing:0px;word-spacing:0px;fill:#000000;fill-opacity:1;stroke:none;font-family:Sans"
       d="m 55.663818,891.08395 c 0,17.48869 0,34.97739 0,52.4661 8.248148,0.25726 19.63473,1.23285 22.543086,-14.48352 3.760009,-16.0626 -1.09147,-39.33401 -13.608388,-37.88371 -2.9766,-0.18222 -5.956649,-0.0664 -8.934698,-0.0989 z m -5.663817,-7.50162 c 10.961697,0.5869 24.548315,-3.48291 31.986872,12.82282 6.153107,17.25357 4.213222,47.42515 -9.836323,52.60165 -7.224648,3.15233 -14.763225,1.71354 -22.150549,2.04487 0,-22.48979 0,-44.97956 0,-67.46934 z m 44.188985,0 c 5.414427,-2.24683 6.536534,2.42434 5.663817,10.31061 0,19.05291 0,38.10582 0,57.15873 -5.414426,2.24682 -6.536539,-2.42436 -5.663817,-10.31063 0,-19.0529 0,-38.1058 0,-57.15871 z m 42.029994,2.21432 c 2.46083,17.64851 -9.78643,-1.86172 -15.70869,4.69986 -12.00367,7.0693 -1.30711,24.21151 7.39916,22.49493 13.05128,1.17956 14.8014,34.59493 1.72042,38.10541 -6.10891,1.05304 -21.40502,4.68761 -20.18784,-10.24519 3.95082,-0.41267 22.38285,13.01242 23.38428,-7.74061 -1.1363,-16.84962 -15.11386,-9.30619 -20.7206,-19.43188 -8.86521,-15.79368 3.80865,-36.50296 14.83245,-31.10228 3.161,0.45146 6.2735,1.60444 9.28082,3.21976 z m 36.45032,0 c 2.46082,17.64851 -9.78643,-1.86172 -15.70869,4.69986 -12.00367,7.0693 -1.30711,24.21151 7.39915,22.49493 13.05128,1.17956 14.80141,34.59493 1.72043,38.10541 -6.10892,1.05304 -21.40503,4.68761 -20.18785,-10.24519 3.95082,-0.41267 22.38285,13.01242 23.38428,-7.74061 -1.1363,-16.84962 -15.11387,-9.30619 -20.7206,-19.43188 -8.86521,-15.79368 3.80866,-36.50296 14.83246,-31.10228 3.161,0.45146 6.27349,1.60444 9.28082,3.21976 z m 28.34712,3.97677 c -12.07418,-0.36509 -15.55734,23.8826 -12.5263,39.02196 1.78932,17.33162 17.81647,22.26977 23.13148,6.80821 5.55802,-15.2039 3.38636,-46.01574 -10.60518,-45.83017 z m 0,-7.41124 c 14.73649,-1.4969 22.41855,25.87415 18.6054,46.08439 -2.29323,25.28379 -25.30178,32.57407 -33.97236,11.95146 -8.03147,-18.68185 -4.47062,-52.91922 11.17166,-57.43986 l 2.04245,-0.44698 2.15285,-0.14901 z m 59.55419,6.41704 c 2.39288,19.41164 -7.93829,-4.34886 -14.72383,1.19546 -11.96005,0.5348 -15.18275,24.01849 -12.10921,39.18223 2.9295,19.01586 19.53841,19.9583 26.83304,7.16267 2.61579,14.40573 -9.17591,16.57852 -15.63158,15.89644 -15.07051,-0.39999 -21.55357,-29.27993 -16.76013,-49.37123 4.12677,-21.73606 21.86386,-25.85017 32.39171,-14.06557 z m 8.80415,-5.19689 c 5.41442,-2.24683 6.53653,2.42434 5.66381,10.31061 0,19.05291 0,38.10582 0,57.15873 -5.41443,2.24682 -6.53653,-2.42436 -5.66381,-10.31063 0,-19.0529 0,-38.1058 0,-57.15871 z m 30.92667,8.9929 c -2.56087,11.19216 -5.12174,22.38433 -7.6826,33.5765 5.13108,0 10.26216,0 15.39325,0 -2.57022,-11.19217 -5.14043,-22.38434 -7.71065,-33.5765 z m -3.19641,-8.9929 c 4.24374,-0.92979 7.9103,-0.50955 8.24345,7.7077 4.71048,19.92055 9.42095,39.84109 14.13143,59.76164 -4.62344,1.69265 -7.31673,-1.02047 -7.81473,-8.74462 -0.40816,-8.22579 -3.69912,-9.87128 -8.28395,-8.56333 -4.15758,0 -8.31517,0 -12.47275,0 -1.6284,5.44048 -2.1139,13.48973 -4.45299,17.30795 -5.97794,2.29519 -5.42528,-2.65766 -3.05078,-9.63249 4.56678,-19.27896 9.13354,-38.5579 13.70032,-57.83685 z m 18.16909,0 c 11.80429,0 23.60858,0 35.41287,0 1.78822,9.22346 -2.87158,8.05453 -7.03701,7.68237 -3.46619,0.67871 -9.68003,-3.07105 -7.82349,6.18638 0,17.86685 0,35.73372 0,53.60059 -5.41276,2.22907 -6.5772,-2.38896 -5.69186,-10.31063 0,-16.49211 0,-32.98422 0,-49.47634 -4.95351,0 -9.90701,0 -14.86051,0 0,-2.56079 0,-5.12158 0,-7.68237 z m 40.90845,0 c 5.41442,-2.24683 6.53653,2.42434 5.66381,10.31061 0,19.05291 0,38.10582 0,57.15873 -5.41442,2.24682 -6.53654,-2.42436 -5.66381,-10.31063 0,-19.0529 0,-38.1058 0,-57.15871 z m 33.92682,6.19109 c -12.07418,-0.36509 -15.55733,23.8826 -12.5263,39.02196 1.78932,17.33162 17.81647,22.26977 23.13149,6.80821 5.55801,-15.2039 3.38635,-46.01574 -10.60519,-45.83017 z m 0,-7.41124 c 14.73649,-1.4969 22.41855,25.87415 18.6054,46.08439 -2.29323,25.28379 -25.30178,32.57407 -33.97236,11.95146 -8.03148,-18.68185 -4.47063,-52.91922 11.17165,-57.43986 l 2.04245,-0.44698 2.15286,-0.14901 z m 28.20692,1.22015 c 4.00525,0.0794 8.81265,-1.98974 9.72367,6.37706 5.48816,16.6886 10.97632,33.3772 16.46447,50.0658 0,-18.81428 0,-37.62858 0,-56.44286 5.42457,-2.35355 6.29216,2.63745 5.4956,10.31061 0,19.05291 0,38.10582 0,57.15873 -4.00526,-0.0793 -8.81265,1.98972 -9.72367,-6.37708 -5.48817,-16.6886 -10.97632,-33.3772 -16.46448,-50.06579 0,18.81429 0,37.62857 0,56.44287 -5.42457,2.35353 -6.29215,-2.63746 -5.49559,-10.31063 0,-19.0529 0,-38.1058 0,-57.15871 z"
       id="text3007-17-1"
       inkscape:connector-curvature="0" />
    <path
       style="font-size:172.72351074px;font-style:normal;font-weight:normal;line-height:125%;letter-spacing:0px;word-spacing:0px;fill:#000000;fill-opacity:1;stroke:none;font-family:Sans"
       d="m 160.35398,832.36212 c -13.45133,-50 -26.90266,-100 -40.35398,-150 4.97935,0 9.95869,0 14.93805,0 11.16224,42.09645 22.32449,84.19291 33.48672,126.28935 11.18584,-42.09644 22.37169,-84.1929 33.55753,-126.28935 4.95575,0 9.9115,0 14.86726,0 -13.42774,50 -26.85547,100 -40.28319,150 -5.40413,0 -10.80827,0 -16.21239,0 z m 56.21238,-64.60147 c 12.71977,0 25.43953,0 38.1593,0 0,5.4923 0,10.9846 0,16.47689 -12.71977,0 -25.43953,0 -38.1593,0 0,-5.49229 0,-10.98459 0,-16.47689 z m 59.53983,-85.39853 c 4.76697,0 9.53393,0 14.30089,0 0,21.13195 0,42.2639 0,63.39585 15.81121,-21.13195 31.62242,-42.2639 47.43364,-63.39585 6.13569,0 12.27138,0 18.40708,0 -17.48673,23.30878 -34.97346,46.61756 -52.46018,69.92633 18.73746,26.69122 37.47492,53.38245 56.21238,80.07367 -6.27728,0 -12.55457,0 -18.83185,0 -16.92036,-24.07903 -33.84071,-48.15807 -50.76107,-72.2371 0,24.07903 0,48.15807 0,72.2371 -4.76696,0 -9.53392,0 -14.30089,0 0,-50 0,-100 0,-150 z"
       id="text3007-17-4-4"
       inkscape:connector-curvature="0" />
  </g>
</svg>
