<?xml version="1.0" encoding="UTF-8" standalone="no"?>
<!-- Created with Inkscape (http://www.inkscape.org/) -->

<svg
   xmlns:dc="http://purl.org/dc/elements/1.1/"
   xmlns:cc="http://creativecommons.org/ns#"
   xmlns:rdf="http://www.w3.org/1999/02/22-rdf-syntax-ns#"
   xmlns:svg="http://www.w3.org/2000/svg"
   xmlns="http://www.w3.org/2000/svg"
   xmlns:xlink="http://www.w3.org/1999/xlink"
   xmlns:sodipodi="http://sodipodi.sourceforge.net/DTD/sodipodi-0.dtd"
   xmlns:inkscape="http://www.inkscape.org/namespaces/inkscape"
   width="500"
   height="500"
   id="svg2"
   version="1.1"
   inkscape:version="0.48.5 r10040"
   sodipodi:docname="ic_launcher_profile.svg"
   inkscape:export-filename="D:\ic_launcher_aida_xxhdpi.png"
   inkscape:export-xdpi="25.92"
   inkscape:export-ydpi="25.92">
  <defs
     id="defs4">
    <linearGradient
       id="linearGradient3791">
      <stop
         style="stop-color:#ffffff;stop-opacity:1;"
         offset="0"
         id="stop3793" />
      <stop
         style="stop-color:#ffffff;stop-opacity:0;"
         offset="1"
         id="stop3795" />
    </linearGradient>
    <linearGradient
       id="linearGradient3791-0">
      <stop
         style="stop-color:#ffffff;stop-opacity:1;"
         offset="0"
         id="stop3793-9" />
      <stop
         style="stop-color:#ffffff;stop-opacity:0;"
         offset="1"
         id="stop3795-4" />
    </linearGradient>
    <linearGradient
       id="linearGradient3791-1">
      <stop
         style="stop-color:#ffffff;stop-opacity:1;"
         offset="0"
         id="stop3793-5" />
      <stop
         style="stop-color:#ffffff;stop-opacity:0;"
         offset="1"
         id="stop3795-2" />
    </linearGradient>
    <linearGradient
       inkscape:collect="always"
       xlink:href="#linearGradient3791-1"
       id="linearGradient4002"
       x1="754.60175"
       y1="-72.234375"
       x2="752.34906"
       y2="169.1942"
       gradientUnits="userSpaceOnUse"
       gradientTransform="matrix(1.0433213,0,0,1.0042029,-536.90863,856.70711)" />
  </defs>
  <sodipodi:namedview
     id="base"
     pagecolor="#ffffff"
     bordercolor="#666666"
     borderopacity="1.0"
     inkscape:pageopacity="0.0"
     inkscape:pageshadow="2"
     inkscape:zoom="0.9899495"
     inkscape:cx="84.041652"
     inkscape:cy="258.3019"
     inkscape:document-units="px"
     inkscape:current-layer="layer1"
     showgrid="false"
     inkscape:window-width="1875"
     inkscape:window-height="1053"
     inkscape:window-x="34"
     inkscape:window-y="768"
     inkscape:window-maximized="1" />
  <metadata
     id="metadata7">
    <rdf:RDF>
      <cc:Work
         rdf:about="">
        <dc:format>image/svg+xml</dc:format>
        <dc:type
           rdf:resource="http://purl.org/dc/dcmitype/StillImage" />
        <dc:title />
      </cc:Work>
    </rdf:RDF>
  </metadata>
  <g
     inkscape:label="Layer 1"
     inkscape:groupmode="layer"
     id="layer1"
     transform="translate(0,-552.36218)">
    <path
       style="fill:none;stroke:#c8c8c8;stroke-width:20;stroke-linecap:butt;stroke-linejoin:miter;stroke-miterlimit:4;stroke-opacity:1;stroke-dasharray:none"
       d="m 84.981839,602.97333 0,377.539 301.777561,0 0,-272.83902"
       id="path3829"
       inkscape:connector-curvature="0"
       sodipodi:nodetypes="cccc" />
    <path
       style="fill:none;fill-opacity:1;stroke:#c8c8c8;stroke-width:19.40229034000000000;stroke-miterlimit:4;stroke-opacity:1"
       d="M 90.21875 60.1875 L 129.25 151.53125 L 446.03125 151.53125 L 407 60.1875 L 90.21875 60.1875 z "
       id="path3797"
       transform="translate(0,552.36218)" />
    <rect
       style="fill:#ffffff;fill-opacity:1;stroke:none"
       id="rect3790-7-4"
       width="45.46867"
       height="60.277691"
       x="-168.61093"
       y="691.55621"
       ry="0"
       transform="matrix(1,0,0.41235717,0.91102226,0,0)" />
    <rect
       style="fill:#ffffff;fill-opacity:1;stroke:none"
       id="rect3790-7-4-0"
       width="29.490234"
       height="61.020004"
       x="-137.02156"
       y="700.07269"
       ry="0"
       transform="matrix(1,0,0.43601471,0.89993954,0,0)" />
    <rect
       style="fill:#ffffff;fill-opacity:1;stroke:none"
       id="rect3790-7-4-0-9"
       width="17.865791"
       height="61.188648"
       x="-97.025711"
       y="702.00751"
       ry="0"
       transform="matrix(1,0,0.44109757,0.89745915,0,0)"
       inkscape:transform-center-x="20.347211"
       inkscape:transform-center-y="-7.1428289" />
    <rect
       style="fill:#ffffff;fill-opacity:1;stroke:none"
       id="rect3790-7-4-0-9-4"
       width="10.612988"
       height="61.151199"
       x="-54.661316"
       y="701.57788"
       ry="0"
       transform="matrix(1,0,0.43997753,0.89800878,0,0)"
       inkscape:transform-center-x="13.77173"
       inkscape:transform-center-y="-7.1428359" />
    <path
       style="font-size:96.29186249000001396px;font-style:normal;font-weight:normal;line-height:125%;letter-spacing:0px;word-spacing:0px;fill:#646464;fill-opacity:1;stroke:none;font-family:Sans"
       d="m 49.999998,773.75667 c 13.459603,0.69374 27.285232,-1.88886 40.376505,2.56219 17.392477,6.77688 15.881377,41.97157 -2.249199,46.16604 -7.052352,2.39272 -14.422872,1.4201 -21.647906,1.62684 0,8.91758 0,17.83517 0,26.75275 -5.493133,0 -10.986267,0 -16.4794,0 0,-25.70261 0,-51.40521 0,-77.10782 z m 16.4794,14.4093 c 0,7.17882 0,14.35766 0,21.53648 6.709515,-0.35832 17.170153,2.39324 18.970014,-8.35699 2.274448,-12.90533 -9.742851,-14.06077 -17.280083,-13.17949 -0.563311,0 -1.126621,0 -1.689931,0 z m 71.139652,19.7805 c 14.3369,2.7259 11.34614,-25.61928 -2.22818,-19.7805 -6.71847,-2.62903 -4.36611,5.68667 -4.70601,10.75393 -0.70845,6.25342 -0.40428,11.28503 5.94179,9.02657 l 0.74273,0 0.24967,0 z m -6.93419,13.7379 c 0,9.72671 0,19.45341 0,29.18012 -5.49314,0 -10.98627,0 -16.47941,0 0,-25.70261 0,-51.40521 0,-77.10782 13.43662,0.70633 27.28939,-1.99433 40.30496,2.8761 13.91192,6.32445 11.70249,34.92262 -3.02298,38.18265 10.61169,4.47061 12.80652,19.67635 18.03897,30.2273 5.0536,7.18185 -1.00857,6.02184 -5.79161,5.82177 -4.31703,-0.57093 -10.48617,2.44356 -11.34221,-4.82739 -4.13851,-8.08794 -5.57347,-19.79064 -13.42524,-23.82334 -2.7063,-0.83784 -5.52286,-0.43152 -8.28248,-0.52939 z m 80.1712,-34.91285 c -14.21179,-0.44882 -17.77797,20.65341 -15.25349,33.95661 0.5578,14.31835 15.543,22.70965 24.69167,13.44818 8.75217,-10.79368 8.64408,-30.54977 1.19852,-42.26436 -2.68078,-3.56088 -6.71335,-5.21516 -10.6367,-5.14043 z m 0,-14.40929 c 15.39515,-1.375 30.82409,12.09292 32.32742,31.15884 3.06044,18.61753 -3.67116,41.51054 -20.1224,46.80477 -15.89994,6.06411 -37.27802,-0.30075 -42.89523,-21.25605 -5.73506,-19.54728 -0.98399,-46.78371 16.97163,-54.04773 4.38075,-1.93062 9.07179,-2.6597 13.71858,-2.65983 z m 45.28627,1.39444 c 14.82433,0 29.64865,0 44.47298,0 -0.89291,4.52976 1.84971,13.44609 -1.48545,15.02906 -8.83604,0 -17.67209,0 -26.50813,0 0.98647,4.19306 -1.98522,13.16198 1.48545,14.35765 8.2796,0 16.55919,0 24.83879,0 -0.89291,4.52975 1.8497,13.44607 -1.48545,15.02904 -8.27959,0 -16.5592,0 -24.83879,0 0,10.89736 0,21.79471 0,32.69207 -5.49314,0 -10.98627,0 -16.4794,0 0,-25.70261 0,-51.40521 0,-77.10782 z m 59.9251,0 c 5.49313,0 10.98627,0 16.4794,0 0,25.70261 0,51.40521 0,77.10782 -5.49313,0 -10.98627,0 -16.4794,0 0,-25.70261 0,-51.40521 0,-77.10782 z m 32.70196,0 c 5.49313,0 10.98626,0 16.4794,0 0,20.69292 0,41.38584 0,62.07877 9.64509,0 19.29017,0 28.93527,0 -0.89291,4.52976 1.8497,13.44607 -1.48546,15.02905 -14.64307,0 -29.28614,0 -43.92921,0 0,-25.70261 0,-51.40521 0,-77.10782 z m 55.81596,0 c 14.82433,0 29.64866,0 44.47298,0 -0.8929,4.52976 1.84971,13.44609 -1.48544,15.02906 -8.83605,0 -17.67209,0 -26.50814,0 0.98647,4.19306 -1.98522,13.16198 1.48546,14.35765 8.27959,0 16.55919,0 24.83878,0 -0.8929,4.52975 1.84971,13.44607 -1.48545,15.02904 -8.27959,0 -16.55918,0 -24.83879,0 0,5.88768 0,11.77534 0,17.66302 9.64509,0 19.29018,0 28.93527,0 -0.89291,4.52976 1.8497,13.44607 -1.48546,15.02905 -14.64307,0 -29.28614,0 -43.92921,0 0,-25.70261 0,-51.40521 0,-77.10782 z"
       id="text2997"
       inkscape:connector-curvature="0" />
    <path
       sodipodi:type="arc"
       style="fill:#ffffff;fill-opacity:1;fill-rule:nonzero;stroke:none"
       id="path3768-1"
       sodipodi:cx="70"
       sodipodi:cy="65.714287"
       sodipodi:rx="18.571428"
       sodipodi:ry="15.714286"
       d="m 88.571428,65.714287 c 0,8.67876 -8.314711,15.714286 -18.571428,15.714286 -10.256717,0 -18.571428,-7.035526 -18.571428,-15.714286 0,-8.678761 8.314711,-15.714286 18.571428,-15.714286 10.256717,0 18.571428,7.035525 18.571428,15.714286 z"
       transform="matrix(1.0769231,0,0,1.2727273,249.21355,664.72682)" />
  </g>
</svg>
