<?xml version="1.0" encoding="UTF-8" standalone="no"?>
<!-- Created with Inkscape (http://www.inkscape.org/) -->

<svg
   xmlns:dc="http://purl.org/dc/elements/1.1/"
   xmlns:cc="http://creativecommons.org/ns#"
   xmlns:rdf="http://www.w3.org/1999/02/22-rdf-syntax-ns#"
   xmlns:svg="http://www.w3.org/2000/svg"
   xmlns="http://www.w3.org/2000/svg"
   xmlns:xlink="http://www.w3.org/1999/xlink"
   xmlns:sodipodi="http://sodipodi.sourceforge.net/DTD/sodipodi-0.dtd"
   xmlns:inkscape="http://www.inkscape.org/namespaces/inkscape"
   width="500"
   height="500"
   id="svg2"
   version="1.1"
   inkscape:version="0.48.3.1 r9886"
   sodipodi:docname="ic_launcher_perceptual_positions.svg"
   inkscape:export-filename="D:\ic_launcher_tote_mdpi.png"
   inkscape:export-xdpi="8.6400003"
   inkscape:export-ydpi="8.6400003">
  <defs
     id="defs4">
    <linearGradient
       id="linearGradient3791">
      <stop
         style="stop-color:#ffffff;stop-opacity:1;"
         offset="0"
         id="stop3793" />
      <stop
         style="stop-color:#ffffff;stop-opacity:0;"
         offset="1"
         id="stop3795" />
    </linearGradient>
    <linearGradient
       id="linearGradient3791-0">
      <stop
         style="stop-color:#ffffff;stop-opacity:1;"
         offset="0"
         id="stop3793-9" />
      <stop
         style="stop-color:#ffffff;stop-opacity:0;"
         offset="1"
         id="stop3795-4" />
    </linearGradient>
    <linearGradient
       id="linearGradient3791-1">
      <stop
         style="stop-color:#ffffff;stop-opacity:1;"
         offset="0"
         id="stop3793-5" />
      <stop
         style="stop-color:#ffffff;stop-opacity:0;"
         offset="1"
         id="stop3795-2" />
    </linearGradient>
    <linearGradient
       inkscape:collect="always"
       xlink:href="#linearGradient3791-1"
       id="linearGradient4002"
       x1="754.60175"
       y1="-72.234375"
       x2="752.34906"
       y2="169.1942"
       gradientUnits="userSpaceOnUse"
       gradientTransform="matrix(1.0433213,0,0,1.0042029,-536.90863,856.70711)" />
  </defs>
  <sodipodi:namedview
     id="base"
     pagecolor="#ffffff"
     bordercolor="#666666"
     borderopacity="1.0"
     inkscape:pageopacity="0.0"
     inkscape:pageshadow="2"
     inkscape:zoom="0.7"
     inkscape:cx="585.80744"
     inkscape:cy="212.02157"
     inkscape:document-units="px"
     inkscape:current-layer="layer1"
     showgrid="false"
     inkscape:window-width="1366"
     inkscape:window-height="692"
     inkscape:window-x="0"
     inkscape:window-y="24"
     inkscape:window-maximized="1" />
  <metadata
     id="metadata7">
    <rdf:RDF>
      <cc:Work
         rdf:about="">
        <dc:format>image/svg+xml</dc:format>
        <dc:type
           rdf:resource="http://purl.org/dc/dcmitype/StillImage" />
        <dc:title />
      </cc:Work>
    </rdf:RDF>
  </metadata>
  <g
     inkscape:label="Layer 1"
     inkscape:groupmode="layer"
     id="layer1"
     transform="translate(0,-552.36218)">
    <path
       style="font-size:61.06902313px;font-style:normal;font-weight:normal;line-height:125%;letter-spacing:0px;word-spacing:0px;fill:#000000;fill-opacity:1;stroke:none;font-family:Sans"
       d="m 49.999998,603.23376 c 9.867584,0.93302 20.907196,-2.7097 29.639832,4.09942 10.822254,11.20107 -0.390402,31.06292 -13.527302,27.3725 -6.660453,-2.45359 -5.753349,3.96052 -5.507199,9.60012 1.826027,7.42233 -2.158845,8.03541 -7.447821,7.12035 -5.9194,1.63026 -2.065587,-8.19176 -3.15751,-12.21836 0,-11.99134 0,-23.98269 0,-35.97403 z m 10.605331,9.00581 c 1.137036,4.02712 -2.495515,13.64327 2.234345,13.4603 13.272717,3.49636 11.554644,-17.77251 -0.835673,-13.4603 l -0.744782,0 -0.65389,0 z m 30.714136,-9.00581 c 9.540215,0 19.080415,0 28.620625,0 0.54533,6.09738 0.63753,11.66378 -5.95826,9.39316 -3.54847,1.13322 -10.99017,-2.29569 -12.05704,1.74548 -1.79022,7.41627 2.08637,8.19214 7.44783,7.22805 4.11314,0.63372 11.58461,-2.66785 9.49316,5.23644 1.59434,7.3266 -6.74758,3.00986 -10.42695,4.15672 -6.30835,-1.93864 -7.49402,2.12552 -6.51404,8.72739 0.37466,4.98625 8.3498,1.0662 11.91651,2.31199 5.82548,-1.5892 8.06219,1.02693 6.7048,7.85464 -1.68429,3.48471 -8.81245,0.59025 -12.66129,1.53852 -5.52178,0 -11.043567,0 -16.565345,0 0,-16.06414 0,-32.12826 0,-48.19239 z m 53.632675,21.36862 c 15.22636,-0.57438 -1.6177,-20.49034 -4.46251,-9.74459 0.77092,4.94753 -2.63792,11.98926 4.46251,9.74459 z m -4.46251,8.58619 c 0,6.0792 0,12.15838 0,18.23758 -3.40051,-1.32139 -11.81426,3.23176 -10.60533,-3.49097 0,-14.90047 0,-29.80095 0,-44.70142 9.36584,0.71857 19.46638,-2.09893 28.09724,3.19562 10.53896,7.98439 -2.65475,23.64177 -2.04534,23.41834 5.68716,5.45705 7.52924,14.30393 11.08053,21.57843 -3.85766,-1.2254 -10.43951,2.67084 -12.27805,-2.35062 -3.40064,-7.03368 -5.06624,-18.11153 -14.24905,-15.88696 z m 65.42249,15.5907 c -12.37833,8.17951 -32.53403,2.61243 -34.6085,-15.93769 -3.76361,-16.69535 9.0974,-33.18213 23.61406,-30.42283 7.90748,-0.61423 13.07447,4.34022 10.99444,13.50061 -9.81033,-10.4686 -27.7218,-1.71958 -23.81724,14.98751 0.16463,16.92118 19.2344,11.33997 23.81724,9.6437 0,2.7429 0,5.4858 0,8.2287 z m 8.81483,-45.54551 c 9.5402,0 19.08041,0 28.62061,0 0.54533,6.09738 0.63753,11.66378 -5.95826,9.39316 -3.54846,1.13322 -10.99017,-2.29569 -12.05702,1.74548 -1.79024,7.41627 2.08635,8.19214 7.44782,7.22805 4.11314,0.63372 11.5846,-2.66785 9.49316,5.23644 1.59434,7.3266 -6.74758,3.00986 -10.42696,4.15672 -6.30835,-1.93864 -7.49402,2.12552 -6.51402,8.72739 0.37464,4.98625 8.34979,1.0662 11.9165,2.31199 5.82548,-1.5892 8.06219,1.02693 6.7048,7.85464 -1.68428,3.48471 -8.81245,0.59025 -12.66129,1.53852 -5.52179,0 -11.04357,0 -16.56534,0 0,-16.06414 0,-32.12826 0,-48.19239 z m 38.56483,0 c 9.86758,0.93302 20.9072,-2.7097 29.63983,4.09942 10.82225,11.20107 -0.3904,31.06292 -13.52731,27.3725 -6.66045,-2.45359 -5.75334,3.96052 -5.50719,9.60012 1.82603,7.42233 -2.15885,8.03541 -7.44782,7.12035 -5.91941,1.63026 -2.06559,-8.19176 -3.15751,-12.21836 0,-11.99134 0,-23.98269 0,-35.97403 z m 10.60533,9.00581 c 1.13704,4.02712 -2.49552,13.64327 2.23434,13.4603 13.27272,3.49636 11.55465,-17.77251 -0.83567,-13.4603 l -0.74478,0 -0.65389,0 z m 25.8109,-9.00581 c 12.63458,0 25.26915,0 37.90373,0 0.54533,6.09738 0.63753,11.66378 -5.95826,9.39316 -5.19986,-0.76721 -9.57301,-0.56568 -7.67716,6.9819 0,10.60578 0,21.21155 0,31.81733 -3.40051,-1.32139 -11.81425,3.23176 -10.60534,-3.49097 0,-11.76941 0,-23.53884 0,-35.30826 -4.55432,0 -9.10864,0 -13.66297,0 0,-3.13105 0,-6.2621 0,-9.39316 z m 43.35788,0 c 3.40051,1.32138 11.81425,-3.23178 10.60533,3.49095 0.38381,10.8028 -0.90059,21.84042 0.92968,32.44958 6.99639,11.19688 16.38326,-2.19863 13.31176,-12.28736 0,-7.88438 0,-15.76877 0,-23.65317 3.40051,1.32138 11.81425,-3.23178 10.60533,3.49095 -0.55088,12.03536 1.40779,24.51943 -1.71091,36.14652 -5.26328,11.9804 -21.1755,12.20079 -29.36133,4.48777 -7.04132,-9.81815 -3.51548,-23.54578 -4.37986,-35.30863 0,-2.93886 0,-5.87774 0,-8.81661 z m 69.03108,39.41253 c -5.52762,0 -11.05525,0 -16.58287,0 -1.14438,5.75556 -2.65174,10.91204 -8.57516,8.77986 -7.49182,2.4021 -2.70589,-5.20918 -1.59791,-9.82085 4.04296,-12.79051 8.08591,-25.58102 12.12886,-38.37154 4.14173,0.95862 10.61054,-2.0007 13.16113,1.63681 4.90525,15.51852 9.81049,31.03704 14.71574,46.55558 -3.78951,-1.24513 -10.94574,3.04725 -11.63351,-3.29949 -0.53876,-1.82679 -1.07751,-3.65358 -1.61628,-5.48037 z m -13.93843,-8.94126 c 2.95154,-1.29558 12.3725,2.82081 10.5407,-2.47625 -1.63123,-5.5658 -3.26247,-11.13161 -4.8937,-16.69741 -1.88233,6.39122 -3.76467,12.78244 -5.647,19.17366 z m 32.61483,-30.47127 c 3.40051,1.32138 11.81425,-3.23178 10.60533,3.49095 0,11.76943 0,23.53885 0,35.30828 6.2071,0 12.41421,0 18.62131,0 0.54533,6.09737 0.63753,11.66377 -5.95826,9.39316 -7.75613,0 -15.51226,0 -23.26838,0 0,-16.06414 0,-32.12826 0,-48.19239 z"
       id="text3007-17"
       inkscape:connector-curvature="0" />
    <path
       style="font-size:84.03143311px;font-style:normal;font-weight:normal;line-height:125%;letter-spacing:0px;word-spacing:0px;fill:#000000;fill-opacity:1;stroke:none;font-family:Sans"
       d="m 57.525379,681.08394 c 0,8.45063 0,16.90124 0,25.35185 7.373815,-0.17977 18.702194,2.18389 20.273333,-9.82326 2.709234,-13.9533 -9.700947,-16.85353 -18.184767,-15.52859 -0.696189,0 -1.392377,0 -2.088566,0 z M 50,673.58233 c 10.773081,1.03716 23.581868,-3.47268 32.233733,6.50321 8.065767,11.45975 2.825434,33.42164 -10.856738,33.53272 -3.895738,2.63475 -14.47281,-3.75395 -13.851616,3.8971 0,7.84544 0,15.69088 0,23.53632 -5.147283,0.81564 -9.394019,0.53891 -7.525379,-7.15593 0,-20.10447 0,-40.20894 0,-60.31342 z m 68.62252,6.1911 c -15.1262,-0.51468 -20.272691,21.70394 -17.16903,36.41928 1.07724,15.6128 17.47425,24.71795 27.53502,14.58944 10.19203,-11.73047 10.1859,-35.10768 0,-46.83988 -2.87909,-2.90376 -6.66106,-4.20978 -10.36599,-4.16884 z m 0,-7.41123 c 16.30475,-1.37206 27.38159,18.76763 25.67813,36.99156 0.98801,19.98926 -14.82257,37.64961 -31.25233,32.41531 -20.839883,-4.49643 -25.395658,-38.72459 -14.843519,-57.3975 4.538659,-7.99963 12.519279,-12.25792 20.417719,-12.00937 z m 70.82053,3.43447 c 3.08218,16.42127 -10.62754,0.30698 -18.32217,4.15755 -16.22671,1.19066 -9.31875,25.30792 4.31282,22.27288 11.79622,0.39115 21.46423,15.14953 16.00242,28.82619 -6.7297,14.87161 -23.9042,12.41913 -35.20767,8.01283 -5.21448,-2.88426 -2.43149,-16.71854 4.40533,-6.58368 10.4332,9.00748 33.59653,-3.53057 20.31759,-18.45747 -9.19828,-5.57232 -24.66091,-2.91474 -27.0746,-18.75967 -2.92357,-14.89456 10.2355,-25.17069 21.25128,-22.8494 4.87643,0.26232 9.69224,1.51089 14.315,3.38077 z m 15.088,-2.21434 c 5.14728,-0.81565 9.39402,-0.53891 7.52538,7.15591 0,20.10449 0,40.20896 0,60.31344 -5.14729,0.81564 -9.39402,0.53891 -7.52538,-7.15593 0,-20.10447 0,-40.20894 0,-60.31342 z m 14.78998,0 c 15.68408,0 31.36817,0 47.05225,0 1.68379,7.5849 -1.8874,8.79539 -7.37404,7.68238 -3.72932,1.07458 -11.0659,-2.22652 -12.37076,1.78897 0,19.33266 0,38.66533 0,57.998 -5.14784,0.80125 -9.43538,0.55894 -7.56264,-7.15593 0,-17.54367 0,-35.08736 0,-52.63104 -6.58161,0 -13.1632,0 -19.74481,0 0,-2.56079 0,-5.12159 0,-7.68238 z m 54.3541,0 c 5.14728,-0.81565 9.39402,-0.53891 7.52537,7.15591 0,20.10449 0,40.20896 0,60.31344 -5.14728,0.81564 -9.39401,0.53891 -7.52537,-7.15593 0,-20.10447 0,-40.20894 0,-60.31342 z m 45.07776,6.1911 c -15.12621,-0.51468 -20.27269,21.70394 -17.16903,36.41928 1.07723,15.6128 17.47426,24.71795 27.53503,14.58944 10.19202,-11.73047 10.18588,-35.10768 0,-46.83988 -2.8791,-2.90376 -6.66106,-4.20978 -10.366,-4.16884 z m 0,-7.41123 c 16.30474,-1.37206 27.38158,18.76763 25.67814,36.99156 0.988,19.98926 -14.82259,37.64961 -31.25233,32.41531 -20.8399,-4.49643 -25.39566,-38.72459 -14.84353,-57.3975 4.53865,-7.99963 12.51929,-12.25792 20.41772,-12.00937 z m 37.47788,1.22013 c 4.12629,0.96848 10.61491,-2.825 11.85986,3.9517 7.64523,17.49705 15.29047,34.99412 22.93571,52.49117 0,-18.81428 0,-37.62858 0,-56.44287 5.72868,-1.31311 8.84451,0.54321 7.30185,8.05041 0,19.80631 0,39.61262 0,59.41894 -4.12629,-0.96849 -10.6149,2.825 -11.85985,-3.9517 -7.64523,-17.49706 -15.29048,-34.99412 -22.93571,-52.49118 0,18.81429 0,37.62858 0,56.44288 -5.72868,1.31311 -8.84452,-0.54322 -7.30186,-8.05041 0,-19.80632 0,-39.61262 0,-59.41894 z m 90.4163,2.21434 c 3.08218,16.42127 -10.62752,0.30698 -18.32217,4.15755 -16.22671,1.19066 -9.31874,25.30792 4.31283,22.27288 11.79622,0.39115 21.46423,15.14953 16.00242,28.82619 -6.72971,14.87161 -23.9042,12.41913 -35.20766,8.01283 -5.21449,-2.88426 -2.4315,-16.71854 4.40532,-6.58368 10.4332,9.00748 33.59653,-3.53057 20.31759,-18.45747 -9.19828,-5.57232 -24.66091,-2.91474 -27.07459,-18.75967 -2.92359,-14.89456 10.23549,-25.17069 21.25126,-22.8494 4.87644,0.26232 9.69225,1.51089 14.315,3.38077 z"
       id="text3012"
       inkscape:connector-curvature="0" />
    <path
       style="fill:#646464;fill-opacity:1;fill-rule:nonzero;stroke:none"
       d="m 402.32771,887.36214 c -34.5178,0 -62.5,27.9822 -62.5,62.5 0,34.51774 27.9822,62.50006 62.5,62.50006 34.51779,0 62.49999,-27.98232 62.49999,-62.50006 0,-34.5178 -27.9822,-62.5 -62.49999,-62.5 z m 9.27735,20.36132 8.44726,0 0,54.63868 11.42577,0 0,9.47265 -11.42577,0 0,20.16599 -10.30273,0 0,-20.16599 -36.57227,0 0,-9.47265 38.42774,-54.63868 z m -1.85547,16.65039 -26.41602,37.98829 26.41602,0 0,-37.98829 z"
       id="path3030-1"
       inkscape:connector-curvature="0" />
    <g
       id="g3007"
       transform="matrix(1.25,0,0,1.25,-33.35499,-203.39728)">
      <path
         sodipodi:nodetypes="ccccccc"
         inkscape:connector-curvature="0"
         id="path3889"
         d="m 123.84521,832.10433 41.36549,67.68022 7.72844,-0.20922 42.7433,-61.84337 -6.98441,-25.83069 -77.27667,0 z"
         style="fill:none;stroke:#969696;stroke-width:5.5;stroke-linecap:butt;stroke-linejoin:miter;stroke-miterlimit:4;stroke-opacity:1;stroke-dasharray:none" />
      <path
         inkscape:connector-curvature="0"
         id="path3030"
         d="m 98.68399,772.10811 c -22.091388,0 -39.999998,17.90861 -39.999998,40 0,22.09139 17.90861,40 39.999998,40 22.09139,0 40,-17.90861 40,-40 0,-22.09139 -17.90861,-40 -40,-40 z m 5.6875,12.9375 4.25,0 0,54.15625 -6.625,0 0,-42.21875 c -1.59439,1.52083 -3.69348,3.04175 -6.28125,4.5625 -2.5878,1.52082 -4.90834,2.67714 -6.968748,3.4375 l 0,-6.40625 c 3.703838,-1.7415 6.946978,-3.8663 9.718748,-6.34375 2.77173,-2.47736 4.75337,-4.85721 5.90625,-7.1875 z"
         style="fill:#646464;fill-opacity:1;fill-rule:nonzero;stroke:none" />
      <path
         inkscape:connector-curvature="0"
         id="path3030-7"
         d="m 240.00427,772.10811 c -22.09139,0 -40,17.90861 -40,40 0,22.09139 17.90861,40 40,40 22.09139,0 40,-17.90861 40,-40 0,-22.09139 -17.90861,-40 -40,-40 z m 0.96875,12.90625 c 5.17555,5e-5 9.29543,1.44268 12.3125,4.3125 3.01701,2.86992 4.53121,6.41281 4.53125,10.65625 -4e-5,2.15857 -0.46075,4.29009 -1.34375,6.375 -0.88307,2.08498 -2.35813,4.28807 -4.40625,6.59375 -2.04819,2.30573 -5.42894,5.44605 -10.1875,9.46875 -3.97368,3.33593 -6.52794,5.62286 -7.65625,6.8125 -1.12834,1.18966 -2.07665,2.3606 -2.8125,3.5625 l 26.46875,0 0,6.375 -35.65625,0 c -0.0491,-1.59437 0.21709,-3.12202 0.78125,-4.59375 0.90756,-2.42834 2.34465,-4.83273 4.34375,-7.1875 1.99909,-2.35475 4.91005,-5.0656 8.6875,-8.15625 5.86236,-4.80762 9.81455,-8.62892 11.875,-11.4375 2.06039,-2.80851 3.09372,-5.46678 3.09375,-7.96875 -3e-5,-2.62454 -0.93608,-4.82209 -2.8125,-6.625 -1.87648,-1.80282 -4.32673,-2.7187 -7.34375,-2.71875 -3.18876,5e-5 -5.74302,0.9618 -7.65625,2.875 -1.91326,1.91329 -2.88173,4.58382 -2.90625,7.96875 l -6.8125,-0.71875 c 0.46604,-5.07742 2.20842,-8.93233 5.25,-11.59375 3.04156,-2.66132 7.12346,-3.99995 12.25,-4 z"
         style="fill:#646464;fill-opacity:1;fill-rule:nonzero;stroke:none" />
      <path
         inkscape:connector-curvature="0"
         id="path3030-4"
         d="m 169.34413,892.60757 c -22.09139,0 -40,17.90861 -40,40 0,22.09139 17.90861,40 40,40 22.09139,0 40,-17.90861 40,-40 0,-22.09139 -17.90861,-40 -40,-40 z m -0.75,12.4375 c 2.94343,5e-5 5.64757,0.64307 8.125,1.90625 2.47738,1.26328 4.37518,2.97324 5.6875,5.15625 1.31226,2.18311 1.96871,4.51591 1.96875,6.96875 -4e-5,2.33027 -0.62407,4.46179 -1.875,6.375 -1.251,1.91328 -3.10965,3.43421 -5.5625,4.5625 3.18871,0.73589 5.67139,2.24456 7.4375,4.5625 1.76604,2.31799 2.62496,5.23568 2.625,8.71875 -4e-5,4.70954 -1.691,8.69416 -5.125,11.96875 -3.43406,3.2746 -7.78211,4.90625 -13.03125,4.90625 -4.73407,0 -8.68509,-1.39794 -11.8125,-4.21875 -3.12743,-2.82081 -4.90224,-6.47997 -5.34375,-10.96875 l 6.625,-0.875 c 0.76038,3.75292 2.04759,6.43806 3.875,8.09375 1.82738,1.6557 4.0629,2.5 6.6875,2.5 3.11513,0 5.7287,-1.09146 7.875,-3.25 2.14624,-2.15852 3.24997,-4.84249 3.25,-8.03125 -3e-5,-3.04155 -1.0132,-5.52541 -3,-7.5 -1.98686,-1.97454 -4.49642,-2.96872 -7.5625,-2.96875 -1.25099,3e-5 -2.82333,0.2282 -4.6875,0.71875 l 0.75,-5.8125 c 0.4415,0.0491 0.79267,0.0938 1.0625,0.0937 2.82079,3e-5 5.33708,-0.74699 7.59375,-2.21875 2.25662,-1.47169 3.40622,-3.74636 3.40625,-6.8125 -3e-5,-2.42831 -0.82535,-4.43683 -2.46875,-6.03125 -1.64345,-1.59432 -3.77497,-2.37495 -6.375,-2.375 -2.57554,5e-5 -4.7205,0.7874 -6.4375,2.40625 -1.71703,1.61895 -2.82193,4.04349 -3.3125,7.28125 l -6.625,-1.15625 c 0.80945,-4.43967 2.66137,-7.87184 5.53125,-10.3125 2.86986,-2.44056 6.45072,-3.68745 10.71875,-3.6875 z"
         style="fill:#646464;fill-opacity:1;fill-rule:nonzero;stroke:none" />
    </g>
  </g>
</svg>
