<?xml version="1.0" encoding="UTF-8" standalone="no"?>
<!-- Created with Inkscape (http://www.inkscape.org/) -->

<svg
   xmlns:dc="http://purl.org/dc/elements/1.1/"
   xmlns:cc="http://creativecommons.org/ns#"
   xmlns:rdf="http://www.w3.org/1999/02/22-rdf-syntax-ns#"
   xmlns:svg="http://www.w3.org/2000/svg"
   xmlns="http://www.w3.org/2000/svg"
   xmlns:xlink="http://www.w3.org/1999/xlink"
   xmlns:sodipodi="http://sodipodi.sourceforge.net/DTD/sodipodi-0.dtd"
   xmlns:inkscape="http://www.inkscape.org/namespaces/inkscape"
   width="500"
   height="500"
   id="svg2"
   version="1.1"
   inkscape:version="0.48.3.1 r9886"
   sodipodi:docname="ic_launcher_anchor.svg"
   inkscape:export-filename="D:\ic_launcher_anchor_mdpi.png"
   inkscape:export-xdpi="8.6400003"
   inkscape:export-ydpi="8.6400003">
  <defs
     id="defs4">
    <linearGradient
       id="linearGradient3791">
      <stop
         style="stop-color:#ffffff;stop-opacity:1;"
         offset="0"
         id="stop3793" />
      <stop
         style="stop-color:#ffffff;stop-opacity:0;"
         offset="1"
         id="stop3795" />
    </linearGradient>
    <linearGradient
       id="linearGradient3791-0">
      <stop
         style="stop-color:#ffffff;stop-opacity:1;"
         offset="0"
         id="stop3793-9" />
      <stop
         style="stop-color:#ffffff;stop-opacity:0;"
         offset="1"
         id="stop3795-4" />
    </linearGradient>
    <linearGradient
       id="linearGradient3791-1">
      <stop
         style="stop-color:#ffffff;stop-opacity:1;"
         offset="0"
         id="stop3793-5" />
      <stop
         style="stop-color:#ffffff;stop-opacity:0;"
         offset="1"
         id="stop3795-2" />
    </linearGradient>
    <linearGradient
       inkscape:collect="always"
       xlink:href="#linearGradient3791-1"
       id="linearGradient4002"
       x1="754.60175"
       y1="-72.234375"
       x2="752.34906"
       y2="169.1942"
       gradientUnits="userSpaceOnUse"
       gradientTransform="matrix(1.0433213,0,0,1.0042029,-536.90863,856.70711)" />
  </defs>
  <sodipodi:namedview
     id="base"
     pagecolor="#ffffff"
     bordercolor="#666666"
     borderopacity="1.0"
     inkscape:pageopacity="0.0"
     inkscape:pageshadow="2"
     inkscape:zoom="0.35000001"
     inkscape:cx="134.21242"
     inkscape:cy="377.29585"
     inkscape:document-units="px"
     inkscape:current-layer="layer1"
     showgrid="false"
     inkscape:window-width="1366"
     inkscape:window-height="692"
     inkscape:window-x="0"
     inkscape:window-y="24"
     inkscape:window-maximized="1" />
  <metadata
     id="metadata7">
    <rdf:RDF>
      <cc:Work
         rdf:about="">
        <dc:format>image/svg+xml</dc:format>
        <dc:type
           rdf:resource="http://purl.org/dc/dcmitype/StillImage" />
        <dc:title />
      </cc:Work>
    </rdf:RDF>
  </metadata>
  <g
     inkscape:label="Layer 1"
     inkscape:groupmode="layer"
     id="layer1"
     transform="translate(0,-552.36218)">
    <path
       style="font-size:95.68556213px;font-style:normal;font-weight:normal;line-height:125%;letter-spacing:0px;word-spacing:0px;fill:#000000;fill-opacity:1;stroke:none;font-family:Sans"
       d="m 94.308197,656.28739 c -8.202196,0 -16.40439,0 -24.606583,0 -2.049837,4.32857 -1.677013,13.11548 -5.312494,14.52604 -4.796373,0 -9.592746,0 -14.389119,0 7.534572,-26.57765 15.069145,-53.15532 22.603718,-79.73298 6.253832,0 12.507663,0 18.761495,0 7.53457,26.57766 15.069146,53.15533 22.603716,79.73298 -5.27284,0 -10.54568,0 -15.818516,0 -1.280742,-4.84202 -2.561475,-9.68403 -3.842217,-14.52604 z m -20.68261,-14.79305 c 5.572586,0 11.145172,0 16.717756,0 -2.779481,-10.5741 -5.558959,-21.14819 -8.338439,-31.72229 -2.793106,10.5741 -5.586211,21.14819 -8.379317,31.72229 z m 48.395663,-50.41389 c 5.85872,0 11.71742,0 17.57613,0 7.39833,18.22876 14.79665,36.4575 22.19497,54.68626 0,-18.22876 0,-36.4575 0,-54.68626 4.97309,0 9.94619,0 14.91927,0 0,26.57766 0,53.15533 0,79.73298 -5.8587,0 -11.71741,0 -17.57613,0 -7.39832,-18.22875 -14.79664,-36.45749 -22.19496,-54.68625 0,18.22876 0,36.4575 0,54.68625 -4.9731,0 -9.94618,0 -14.91928,0 0,-26.57765 0,-53.15532 0,-79.73298 z m 118.53669,75.3538 c -16.48126,11.65304 -42.46413,6.90311 -49.68323,-18.31774 -6.15835,-20.55989 -0.17194,-48.64007 17.17759,-55.68753 10.03845,-3.96113 26.71158,-5.42763 32.50564,5.9388 -0.10406,7.85572 1.85739,19.20737 -6.49145,9.02446 -11.24938,-7.65835 -28.10007,-0.62733 -28.84986,17.77368 -3.1031,16.18003 6.26187,35.55773 20.08736,32.1829 8.54448,-0.22086 18.04253,-13.97329 15.25395,3.78884 0,1.76552 0,3.53107 0,5.29659 z m 13.0799,-75.3538 c 5.24559,0 10.49118,0 15.73676,0 0,10.12907 0,20.25812 0,30.38719 7.73895,0 15.47789,0 23.21685,0 0,-10.12907 0,-20.25812 0,-30.38719 5.24559,0 10.49117,0 15.73676,0 0,26.57766 0,53.15533 0,79.73298 -5.24559,0 -10.49117,0 -15.73676,0 0,-11.26836 0,-22.53672 0,-33.80508 -7.73896,0 -15.4779,0 -23.21685,0 0,11.26836 0,22.53672 0,33.80508 -5.24558,0 -10.49117,0 -15.73676,0 0,-26.57765 0,-53.15532 0,-79.73298 z m 98.01758,13.45795 c -13.57135,-0.4641 -16.97682,21.35656 -14.56611,35.11267 0.53267,14.80581 14.84256,23.48281 23.57896,13.90603 8.35776,-11.16116 8.25454,-31.58985 1.1445,-43.70326 -2.55997,-3.68211 -6.41081,-5.39271 -10.15735,-5.31544 z m 0,-14.89987 c 14.70137,-1.4218 29.435,12.50462 30.87058,32.21966 2.92253,19.25137 -3.50571,42.92378 -19.21558,48.39824 -15.18342,6.27058 -35.59811,-0.31097 -40.96218,-21.9797 -5.47662,-20.21279 -0.93965,-48.37649 16.20681,-55.88781 4.18333,-1.99635 8.66297,-2.75025 13.10037,-2.75039 z m 65.60391,36.79572 c 13.70316,2.8113 10.82308,-26.50696 -2.14409,-20.45393 -6.45118,-2.74355 -4.12387,5.98238 -4.47761,11.2054 -1.04855,7.25417 0.43299,11.20267 6.43228,9.24853 l 0.18942,0 z m -6.6217,14.20561 c 0,10.05786 0,20.11571 0,30.17357 -5.24559,0 -10.49118,0 -15.73676,0 0,-26.57765 0,-53.15532 0,-79.73298 12.83114,0.73149 26.05931,-2.06395 38.48862,2.97401 13.28499,6.53977 11.17513,36.11158 -2.88674,39.4826 10.16286,4.65274 12.25496,20.43885 17.27419,31.384 4.89905,7.47255 -1.20008,6.00776 -5.63863,5.89237 -4.12091,-0.57468 -9.9935,2.52261 -10.78559,-5.03005 -4.2178,-8.69016 -5.53182,-22.70847 -14.43573,-25.00665 -2.08825,-0.23974 -4.18643,-0.0995 -6.27936,-0.13687 z"
       id="text3007-0"
       inkscape:connector-curvature="0" />
    <path
       sodipodi:type="arc"
       style="fill:none;stroke:#646464;stroke-width:16.60000038000000100;stroke-miterlimit:4;stroke-opacity:1;stroke-dasharray:none"
       id="path3897"
       sodipodi:cx="-325.2691"
       sodipodi:cy="144.4263"
       sodipodi:rx="20.203051"
       sodipodi:ry="20.203051"
       d="m -305.06605,144.4263 c 0,11.15784 -9.04522,20.20305 -20.20305,20.20305 -11.15784,0 -20.20305,-9.04521 -20.20305,-20.20305 0,-11.15784 9.04521,-20.20305 20.20305,-20.20305 11.15783,0 20.20305,9.04521 20.20305,20.20305 z"
       transform="matrix(1.7124414,0,0,1.7719633,803.19861,497.86486)" />
    <path
       style="fill:none;stroke:#646464;stroke-width:28.91633987000000200;stroke-linecap:butt;stroke-linejoin:miter;stroke-miterlimit:4;stroke-opacity:1;stroke-dasharray:none"
       d="m 246.19433,789.58205 c 0,60.68384 0,141.04459 0,189.73501"
       id="path3901"
       inkscape:connector-curvature="0" />
    <path
       sodipodi:type="arc"
       style="fill:none;stroke:#646464;stroke-width:16.60000038000000100;stroke-miterlimit:4;stroke-opacity:1;stroke-dasharray:none"
       id="path3903"
       sodipodi:cx="-319.20819"
       sodipodi:cy="267.66492"
       sodipodi:rx="68.690376"
       sodipodi:ry="46.467018"
       d="m -250.51781,267.66492 c 0,25.66302 -30.75373,46.46702 -68.69038,46.46702 -37.93665,0 -68.69038,-20.804 -68.69038,-46.46702 0,0 0,0 0,-10e-6"
       transform="matrix(1.7124414,0,0,1.7719633,796.2793,429.84664)"
       sodipodi:start="0"
       sodipodi:end="3.1415927"
       sodipodi:open="true" />
    <path
       sodipodi:type="star"
       style="fill:#646464;fill-opacity:1;fill-rule:nonzero;stroke:none"
       id="path3054"
       sodipodi:sides="3"
       sodipodi:cx="-325.26913"
       sodipodi:cy="308.07101"
       sodipodi:r1="101.98039"
       sodipodi:r2="50.990196"
       sodipodi:arg1="0.52359878"
       sodipodi:arg2="1.5707963"
       inkscape:flatsided="true"
       inkscape:rounded="0"
       inkscape:randomized="0"
       d="m -236.95152,359.06121 -176.63523,0 88.31762,-152.97059 z"
       transform="matrix(0.36571854,0,0,0.62691444,486.65758,682.48284)"
       inkscape:transform-center-y="-9.6835491" />
    <path
       sodipodi:type="star"
       style="fill:#646464;fill-opacity:1;fill-rule:nonzero;stroke:none"
       id="path3054-8"
       sodipodi:sides="3"
       sodipodi:cx="-325.26913"
       sodipodi:cy="308.07101"
       sodipodi:r1="101.98039"
       sodipodi:r2="50.990196"
       sodipodi:arg1="0.52359878"
       sodipodi:arg2="1.5707963"
       inkscape:flatsided="true"
       inkscape:rounded="0"
       inkscape:randomized="0"
       d="m -236.95152,359.06121 -176.63523,0 88.31762,-152.97059 z"
       transform="matrix(0.36571854,0,0,0.62691444,251.25635,681.09776)"
       inkscape:transform-center-y="-9.6835491" />
  </g>
</svg>
