<?xml version="1.0" encoding="UTF-8" standalone="no"?>
<!-- Created with Inkscape (http://www.inkscape.org/) -->

<svg
   xmlns:dc="http://purl.org/dc/elements/1.1/"
   xmlns:cc="http://creativecommons.org/ns#"
   xmlns:rdf="http://www.w3.org/1999/02/22-rdf-syntax-ns#"
   xmlns:svg="http://www.w3.org/2000/svg"
   xmlns="http://www.w3.org/2000/svg"
   xmlns:xlink="http://www.w3.org/1999/xlink"
   xmlns:sodipodi="http://sodipodi.sourceforge.net/DTD/sodipodi-0.dtd"
   xmlns:inkscape="http://www.inkscape.org/namespaces/inkscape"
   width="24"
   height="24"
   id="svg2"
   version="1.1"
   inkscape:version="0.48.5 r10040"
   sodipodi:docname="ic_model_gordon_short.svg"
   inkscape:export-filename="D:\ic_launcher_tote_mdpi.png"
   inkscape:export-xdpi="8.6400003"
   inkscape:export-ydpi="8.6400003">
  <defs
     id="defs4">
    <linearGradient
       id="linearGradient3791">
      <stop
         style="stop-color:#ffffff;stop-opacity:1;"
         offset="0"
         id="stop3793" />
      <stop
         style="stop-color:#ffffff;stop-opacity:0;"
         offset="1"
         id="stop3795" />
    </linearGradient>
    <linearGradient
       id="linearGradient3791-0">
      <stop
         style="stop-color:#ffffff;stop-opacity:1;"
         offset="0"
         id="stop3793-9" />
      <stop
         style="stop-color:#ffffff;stop-opacity:0;"
         offset="1"
         id="stop3795-4" />
    </linearGradient>
    <linearGradient
       id="linearGradient3791-1">
      <stop
         style="stop-color:#ffffff;stop-opacity:1;"
         offset="0"
         id="stop3793-5" />
      <stop
         style="stop-color:#ffffff;stop-opacity:0;"
         offset="1"
         id="stop3795-2" />
    </linearGradient>
    <linearGradient
       inkscape:collect="always"
       xlink:href="#linearGradient3791-1"
       id="linearGradient4002"
       x1="754.60175"
       y1="-72.234375"
       x2="752.34906"
       y2="169.1942"
       gradientUnits="userSpaceOnUse"
       gradientTransform="matrix(1.0433213,0,0,1.0042029,-536.90863,856.70711)" />
  </defs>
  <sodipodi:namedview
     id="base"
     pagecolor="#ffffff"
     bordercolor="#666666"
     borderopacity="1.0"
     inkscape:pageopacity="0.0"
     inkscape:pageshadow="2"
     inkscape:zoom="16"
     inkscape:cx="13.373355"
     inkscape:cy="7.0279219"
     inkscape:document-units="px"
     inkscape:current-layer="layer1"
     showgrid="false"
     inkscape:window-width="1875"
     inkscape:window-height="1053"
     inkscape:window-x="34"
     inkscape:window-y="768"
     inkscape:window-maximized="1" />
  <metadata
     id="metadata7">
    <rdf:RDF>
      <cc:Work
         rdf:about="">
        <dc:format>image/svg+xml</dc:format>
        <dc:type
           rdf:resource="http://purl.org/dc/dcmitype/StillImage" />
        <dc:title />
      </cc:Work>
    </rdf:RDF>
  </metadata>
  <g
     inkscape:label="Layer 1"
     inkscape:groupmode="layer"
     id="layer1"
     transform="translate(0,-1028.3622)">
    <path
       style="font-size:125.17115021px;font-style:normal;font-weight:normal;line-height:125%;letter-spacing:0px;word-spacing:0px;fill:#000000;fill-opacity:1;stroke:none;font-family:Sans"
       d="m 2.7228231,1031.789 c 0.4343807,0 0.8687615,0 1.3031422,0 0,0.8124 0,1.6248 0,2.4371 -0.8205173,0.3302 -1.9871709,0.4835 -2.5630522,-0.4214 -0.56800003,-0.9508 -0.57970521,-2.2384 -0.2174888,-3.2793 0.3683669,-1.0538 1.5710956,-1.4096 2.4644035,-0.9886 0.464668,0.011 0.010832,1.0534 -0.310153,0.5045 -0.7642826,-0.4028 -1.6470932,0.2414 -1.7222056,1.1426 -0.1105881,0.8567 -0.1525641,1.942 0.5118266,2.5479 0.3908883,0.2623 1.4598951,0.4187 1.265387,-0.3619 0,-0.3412 0,-0.6823 0,-1.0235 -0.2288196,-0.032 -0.5730097,0.064 -0.7318597,-0.046 0,-0.1707 0,-0.3412 0,-0.5117 z m 3.619153,2.692 c -0.7744996,0.067 -1.4270838,-0.6277 -1.5401479,-1.4435 -0.1610492,-1.052 -0.2207571,-2.3021 0.4190776,-3.1841 0.6793629,-0.8025 2.0954986,-0.608 2.481521,0.4467 0.3859247,1.0147 0.3860071,2.2312 -0.002,3.2451 -0.2360274,0.5811 -0.7778598,0.9628 -1.3584115,0.9358 z m 0,-0.554 c 0.8303823,0.027 1.0258253,-1.0401 1.0274878,-1.7587 -0.00483,-0.7501 0.042949,-1.7835 -0.6681205,-2.1769 -0.796078,-0.368 -1.3831523,0.566 -1.3684461,1.3544 -0.037169,0.8036 -0.100098,1.772 0.4635495,2.3853 0.1522697,0.1369 0.3510717,0.1979 0.5455293,0.1959 z m 3.0416952,-1.567 c 0,0.6844 0,1.3687 0,2.053 -0.2105766,-0.057 -0.6730417,0.1642 -0.5774589,-0.2293 0,-1.58 0,-3.16 0,-4.74 0.8076018,0.051 1.7373436,-0.1961 2.4008316,0.4464 0.601224,0.7147 0.303388,2.0566 -0.585079,2.2967 0.408647,0.742 0.817294,1.4841 1.225942,2.2262 -0.226383,-0.052 -0.560825,0.1042 -0.718055,-0.079 -0.346342,-0.6579 -0.692683,-1.3158 -1.039025,-1.9737 -0.2357191,0 -0.4714369,0 -0.7071557,0 z m 0,-0.537 c 0.5382568,-0.011 1.3070907,0.1158 1.4995657,-0.6082 0.264457,-0.7942 -0.459306,-1.3893 -1.1335629,-1.2306 -0.3528001,-0.1009 -0.4215477,0.1103 -0.3660028,0.4586 0,0.4601 0,0.9201 0,1.3802 z m 3.0571347,2.59 c 0,-1.6564 0,-3.3128 0,-4.9693 0.881837,0.022 1.920821,-0.166 2.578491,0.6425 0.685898,0.8632 0.684603,2.203 0.279476,3.2103 -0.399236,0.9323 -1.405472,1.1852 -2.261786,1.1165 -0.198727,0 -0.397455,0 -0.596181,0 z m 0.577458,-4.4288 c 0,1.2949 0,2.59 0,3.885 0.71244,0.064 1.579465,-0.1605 1.809321,-1.0166 0.223726,-0.8582 0.232927,-1.9986 -0.464733,-2.5989 -0.395334,-0.3078 -0.886722,-0.269 -1.344588,-0.2695 z m 4.69996,4.4968 c -0.774502,0.067 -1.427085,-0.6277 -1.540149,-1.4435 -0.16105,-1.052 -0.220759,-2.3021 0.419078,-3.1841 0.679363,-0.8025 2.095497,-0.608 2.48152,0.4467 0.385926,1.0147 0.386007,2.2312 -0.002,3.2451 -0.236026,0.5811 -0.777859,0.9628 -1.358411,0.9358 z m 0,-0.554 c 0.830381,0.027 1.025823,-1.0401 1.027486,-1.7587 -0.0048,-0.7501 0.04295,-1.7835 -0.668121,-2.1769 -0.796076,-0.368 -1.383151,0.566 -1.368444,1.3544 -0.03719,0.8036 -0.100098,1.772 0.463547,2.3853 0.152271,0.1369 0.351074,0.1979 0.545532,0.1959 z m 5.261976,0.486 c -0.228315,-0.06 -0.602858,0.1346 -0.717949,-0.124 -0.579008,-1.3296 -1.158014,-2.6591 -1.737023,-3.9888 -0.02496,0.5115 0.05108,1.1339 0.03089,1.6926 0,0.8068 0,1.6135 0,2.4202 -0.230108,-0.033 -0.648122,0.1402 -0.531138,-0.2751 0,-1.5648 0,-3.1294 0,-4.6942 0.225905,0.061 0.599296,-0.1355 0.71184,0.1241 0.576927,1.3227 1.153854,2.6455 1.730779,3.9683 -0.0084,-0.8772 -0.036,-1.8362 -0.02471,-2.749 0,-0.4478 0,-0.8956 0,-1.3434 0.23127,0.034 0.65334,-0.1413 0.537314,0.2752 0,1.5646 0,3.1295 0,4.6941 z"
       id="text3006"
       inkscape:connector-curvature="0" />
    <path
       style="fill:#646464;fill-opacity:1;fill-rule:evenodd;stroke:none"
       d="m 1.0089756,1036.0157 0,3.8366 0,7.6732 0,3.8367 3.5153956,0 13.1827358,0 5.273094,0 0,-3.8367 0,-2.0166 0,-1.82 0,-2.0165 -11.790309,0 0,3.8365 6.517215,0 0,2.0166 -13.1827358,0 0,-7.6732 18.4558298,0 0,-3.8366 -18.4558298,0 -3.5153956,0 z"
       id="rect3010"
       inkscape:connector-curvature="0" />
    <path
       style="fill:#ffff00;stroke:none;stroke-width:0.05300795000000000px;stroke-linecap:butt;stroke-linejoin:miter;stroke-opacity:1"
       d="m 15.962518,1036.2577 6.658287,0 0,3.2038 z"
       id="path2995"
       inkscape:connector-curvature="0" />
  </g>
</svg>
