<?xml version="1.0" encoding="UTF-8" standalone="no"?>
<!-- Created with Inkscape (http://www.inkscape.org/) -->

<svg
   xmlns:dc="http://purl.org/dc/elements/1.1/"
   xmlns:cc="http://creativecommons.org/ns#"
   xmlns:rdf="http://www.w3.org/1999/02/22-rdf-syntax-ns#"
   xmlns:svg="http://www.w3.org/2000/svg"
   xmlns="http://www.w3.org/2000/svg"
   xmlns:sodipodi="http://sodipodi.sourceforge.net/DTD/sodipodi-0.dtd"
   xmlns:inkscape="http://www.inkscape.org/namespaces/inkscape"
   width="24"
   height="24"
   id="svg2"
   version="1.1"
   inkscape:version="0.91 r13725"
   sodipodi:docname="ic_launcher_sciene.svg"
   inkscape:export-filename="D:\ic_launcher_sciene_mdpi.png"
   inkscape:export-xdpi="8.6400003"
   inkscape:export-ydpi="8.6400003">
  <defs
     id="defs4">
    <linearGradient
       id="linearGradient3791">
      <stop
         style="stop-color:#ffffff;stop-opacity:1;"
         offset="0"
         id="stop3793" />
      <stop
         style="stop-color:#ffffff;stop-opacity:0;"
         offset="1"
         id="stop3795" />
    </linearGradient>
    <linearGradient
       id="linearGradient3791-0">
      <stop
         style="stop-color:#ffffff;stop-opacity:1;"
         offset="0"
         id="stop3793-9" />
      <stop
         style="stop-color:#ffffff;stop-opacity:0;"
         offset="1"
         id="stop3795-4" />
    </linearGradient>
    <linearGradient
       id="linearGradient3791-1">
      <stop
         style="stop-color:#ffffff;stop-opacity:1;"
         offset="0"
         id="stop3793-5" />
      <stop
         style="stop-color:#ffffff;stop-opacity:0;"
         offset="1"
         id="stop3795-2" />
    </linearGradient>
  </defs>
  <sodipodi:namedview
     id="base"
     pagecolor="#ffffff"
     bordercolor="#666666"
     borderopacity="1.0"
     inkscape:pageopacity="0.0"
     inkscape:pageshadow="2"
     inkscape:zoom="15.839192"
     inkscape:cx="9.2096791"
     inkscape:cy="10.251746"
     inkscape:document-units="px"
     inkscape:current-layer="layer1"
     showgrid="false"
     inkscape:window-width="1182"
     inkscape:window-height="1005"
     inkscape:window-x="94"
     inkscape:window-y="-4"
     inkscape:window-maximized="1" />
  <metadata
     id="metadata7">
    <rdf:RDF>
      <cc:Work
         rdf:about="">
        <dc:format>image/svg+xml</dc:format>
        <dc:type
           rdf:resource="http://purl.org/dc/dcmitype/StillImage" />
        <dc:title />
      </cc:Work>
    </rdf:RDF>
  </metadata>
  <g
     inkscape:label="Layer 1"
     inkscape:groupmode="layer"
     id="layer1"
     transform="translate(0,-1028.3622)">
    <path
       style="font-size:95.67445374px;font-style:normal;font-weight:normal;line-height:125%;letter-spacing:0px;word-spacing:0px;fill:#000000;fill-opacity:1;stroke:none;font-family:Sans"
       d="m 5.367134,1030.7618 c 0,0.2433 0,0.4865 0,0.7298 -0.338805,-0.3136 -1.706262,-0.4829 -1.247089,0.3578 0.469324,0.2245 1.156907,0.1361 1.382661,0.8073 0.246832,0.7573 -0.266184,1.5945 -0.935167,1.5071 -0.40439,0.01 -0.892246,-0.037 -1.216532,-0.2831 0.03811,-0.191 -0.08059,-0.697 0.06725,-0.6676 0.408545,0.2373 1.230202,0.627 1.433031,-0.063 -0.109371,-0.5649 -0.751806,-0.3576 -1.077032,-0.6264 -0.681349,-0.3135 -0.552869,-1.7047 0.155886,-1.8631 0.472554,-0.147 0.972352,-0.038 1.436987,0.1016 z m 3.062928,3.15 c -0.761885,0.5039 -1.963004,0.2985 -2.296723,-0.7921 -0.284685,-0.8891 -0.0079,-2.1034 0.794074,-2.4081 0.464073,-0.1713 1.234584,-0.2346 1.502649,0.2566 -0.0048,0.3399 0.08569,0.8304 -0.300083,0.3904 -0.520029,-0.3311 -1.298991,-0.027 -1.333652,0.7686 -0.143448,0.6997 0.28947,1.5377 0.928584,1.3917 0.394621,-0.01 0.83402,-0.6045 0.705151,0.1633 0,0.076 0,0.1531 0,0.2296 z m 0.604648,-3.2585 c 0.24249,0 0.484979,0 0.727469,0 0,1.1493 0,2.2986 0,3.4479 -0.24249,0 -0.484979,0 -0.727469,0 0,-1.1493 0,-2.2986 0,-3.4479 z m 1.443601,0 c 0.654407,0 1.308813,0 1.96322,0 -0.04022,0.2017 0.083,0.6032 -0.066,0.672 -0.389918,0 -0.779836,0 -1.169755,0 0.0484,0.1952 -0.107391,0.6399 0.099,0.642 0.354355,0 0.70871,0 1.063065,0 -0.04023,0.2017 0.083,0.6033 -0.066,0.672 -0.365355,0 -0.730709,0 -1.096064,0 0,0.2633 0,0.5266 0,0.7899 0.425774,0 0.851548,0 1.277322,0 -0.04023,0.2017 0.083,0.6032 -0.066,0.672 -0.646264,0 -1.292529,0 -1.938793,0 0,-1.1493 0,-2.2986 0,-3.4479 z m 2.64534,0 c 0.270833,0 0.541665,0 0.812498,0 0.342005,0.7882 0.684009,1.5765 1.026014,2.3648 0,-0.7883 0,-1.5766 0,-2.3648 0.229892,0 0.459786,0 0.689678,0 0,1.1493 0,2.2986 0,3.4479 -0.270832,0 -0.541665,0 -0.812498,0 -0.342004,-0.7883 -0.684009,-1.5766 -1.026014,-2.3648 0,0.7882 0,1.5765 0,2.3648 -0.229893,0 -0.459785,0 -0.689678,0 0,-1.1493 0,-2.2986 0,-3.4479 z m 5.479635,3.2585 c -0.761885,0.5039 -1.963004,0.2985 -2.296723,-0.7921 -0.284685,-0.8891 -0.0079,-2.1034 0.794073,-2.4081 0.464074,-0.1713 1.234586,-0.2346 1.50265,0.2566 -0.0048,0.3399 0.08569,0.8304 -0.300083,0.3904 -0.520029,-0.3311 -1.298991,-0.027 -1.333652,0.7686 -0.143448,0.6997 0.28947,1.5377 0.928585,1.3917 0.39462,-0.01 0.834019,-0.6045 0.70515,0.1633 0,0.076 0,0.1531 0,0.2296 z m 0.604649,-3.2585 c 0.654407,0 1.308814,0 1.96322,0 -0.04022,0.2017 0.083,0.6032 -0.066,0.672 -0.389919,0 -0.779837,0 -1.169756,0 0.0484,0.1952 -0.107391,0.6399 0.099,0.642 0.354355,0 0.70871,0 1.063065,0 -0.04023,0.2017 0.083,0.6033 -0.066,0.672 -0.365355,0 -0.730709,0 -1.096064,0 0,0.2633 0,0.5266 0,0.7899 0.425774,0 0.851548,0 1.277322,0 -0.04023,0.2017 0.083,0.6032 -0.066,0.672 -0.646264,0 -1.292529,0 -1.938793,0 0,-1.1493 0,-2.2986 0,-3.4479 z"
       id="text3007-17"
       inkscape:connector-curvature="0" />
    <circle
       style="fill:#646464;fill-rule:evenodd;stroke:none;stroke-width:1px;stroke-linecap:butt;stroke-linejoin:miter;stroke-opacity:1;fill-opacity:1"
       id="path3344"
       cx="12.690046"
       cy="1043.0183"
       r="5.8715115" />
    <ellipse
       style="fill:#646464;stroke:none;fill-opacity:1"
       id="path4150"
       cx="-283.91324"
       cy="1003.7139"
       rx="10.038391"
       ry="2.2728431"
       transform="matrix(0.95886288,-0.28386964,0.28386964,0.95886288,0,0)" />
    <path
       style="fill:#f9f9f9;stroke:none"
       d="m 12.628745,1037.7864 a 3.8977826,3.767532 0 0 0 -4.5904828,2.9466 3.8977826,3.767532 0 0 0 0.015111,1.5437 5.9594198,5.7602764 0 0 1 6.2078608,-3.759 3.8977826,3.767532 0 0 0 -1.632489,-0.7313 z"
       id="path4154"
       inkscape:connector-curvature="0" />
    <path
       style="fill:#f9f9f9;stroke:none"
       d="m 12.858377,1044.7676 a 1.1006221,7.1165895 70.170161 0 0 8.493129,-3.7136 1.1006221,7.1165895 70.170161 0 0 0.319515,-0.5876 1.6827694,10.880736 70.170161 0 1 -11.435005,4.9349 1.1006221,7.1165895 70.170161 0 0 2.622361,-0.6337 z"
       id="path4154-9"
       inkscape:connector-curvature="0" />
    <path
       style="fill:#f9f9f9;stroke:none"
       d="m 13.435371,1043.9815 a 0.74648715,4.7388288 69.704064 0 0 5.639466,-2.5258 0.74648715,4.7388288 69.704064 0 0 0.212158,-0.3997 1.1413233,7.2453167 69.704064 0 1 -7.59288,3.3565 0.74648715,4.7388288 69.704064 0 0 1.741256,-0.431 z"
       id="path4154-9-4"
       inkscape:connector-curvature="0" />
    <path
       style="fill:#f9f9f9;stroke:none"
       d="m 13.735065,1043.2912 a 0.46439695,2.8991387 69.265208 0 0 3.440746,-1.5756 0.46439695,2.8991387 69.265208 0 0 0.129441,-0.2493 0.71002837,4.4325674 69.265208 0 1 -4.63256,2.0938 0.46439695,2.8991387 69.265208 0 0 1.062373,-0.2689 z"
       id="path4154-9-4-3"
       inkscape:connector-curvature="0" />
    <path
       style="fill:#f9f9f9;stroke:none"
       d="m 9.7648113,1046.2385 a 1.1006221,7.1165895 76.975101 0 0 8.8733207,-2.6811 1.1006221,7.1165895 76.975101 0 0 0.386888,-0.5456 1.6827694,10.880736 76.975101 0 1 -11.9391828,3.5453 1.1006221,7.1165895 76.975101 0 0 2.6789741,-0.3186 z"
       id="path4154-9-7"
       inkscape:connector-curvature="0" />
  </g>
</svg>
