<?xml version="1.0" encoding="UTF-8" standalone="no"?>
<!-- Created with Inkscape (http://www.inkscape.org/) -->

<svg
   xmlns:dc="http://purl.org/dc/elements/1.1/"
   xmlns:cc="http://creativecommons.org/ns#"
   xmlns:rdf="http://www.w3.org/1999/02/22-rdf-syntax-ns#"
   xmlns:svg="http://www.w3.org/2000/svg"
   xmlns="http://www.w3.org/2000/svg"
   xmlns:sodipodi="http://sodipodi.sourceforge.net/DTD/sodipodi-0.dtd"
   xmlns:inkscape="http://www.inkscape.org/namespaces/inkscape"
   width="24"
   height="24"
   id="svg2"
   version="1.1"
   inkscape:version="0.48.5 r10040"
   sodipodi:docname="ic_model_milton.svg"
   inkscape:export-filename="D:\ic_launcher_milton_mdpi.png"
   inkscape:export-xdpi="8.6400003"
   inkscape:export-ydpi="8.6400003">
  <defs
     id="defs4">
    <linearGradient
       id="linearGradient3791">
      <stop
         style="stop-color:#ffffff;stop-opacity:1;"
         offset="0"
         id="stop3793" />
      <stop
         style="stop-color:#ffffff;stop-opacity:0;"
         offset="1"
         id="stop3795" />
    </linearGradient>
    <linearGradient
       id="linearGradient3791-0">
      <stop
         style="stop-color:#ffffff;stop-opacity:1;"
         offset="0"
         id="stop3793-9" />
      <stop
         style="stop-color:#ffffff;stop-opacity:0;"
         offset="1"
         id="stop3795-4" />
    </linearGradient>
    <linearGradient
       id="linearGradient3791-1">
      <stop
         style="stop-color:#ffffff;stop-opacity:1;"
         offset="0"
         id="stop3793-5" />
      <stop
         style="stop-color:#ffffff;stop-opacity:0;"
         offset="1"
         id="stop3795-2" />
    </linearGradient>
  </defs>
  <sodipodi:namedview
     id="base"
     pagecolor="#ffffff"
     bordercolor="#666666"
     borderopacity="1.0"
     inkscape:pageopacity="0.0"
     inkscape:pageshadow="2"
     inkscape:zoom="22.627417"
     inkscape:cx="28.343923"
     inkscape:cy="10.546936"
     inkscape:document-units="px"
     inkscape:current-layer="layer1"
     showgrid="false"
     inkscape:window-width="1908"
     inkscape:window-height="1053"
     inkscape:window-x="1"
     inkscape:window-y="768"
     inkscape:window-maximized="1" />
  <metadata
     id="metadata7">
    <rdf:RDF>
      <cc:Work
         rdf:about="">
        <dc:format>image/svg+xml</dc:format>
        <dc:type
           rdf:resource="http://purl.org/dc/dcmitype/StillImage" />
        <dc:title />
      </cc:Work>
    </rdf:RDF>
  </metadata>
  <g
     inkscape:label="Layer 1"
     inkscape:groupmode="layer"
     id="layer1"
     transform="translate(0,-1028.3622)">
    <path
       style="fill:#969696;fill-opacity:1;fill-rule:nonzero;stroke:none"
       d="m 11.147818,1040.3337 c -0.566934,-3.6572 -1.133868,-7.3143 -1.7008027,-10.9715 1.1338687,0 2.2677367,0 3.4016057,0 -0.566934,3.6572 -1.133869,7.3143 -1.700803,10.9715 z"
       id="path3051-18"
       inkscape:connector-curvature="0" />
    <path
       style="fill:#969696;fill-opacity:1;fill-rule:nonzero;stroke:none"
       d="m 11.276236,1039.9114 c 1.337605,-3.4506 2.67521,-6.9013 4.012816,-10.352 0.981958,0.567 1.963917,1.1339 2.945876,1.7008 -2.319564,2.8838 -4.639128,5.7675 -6.958692,8.6512 z"
       id="path3051-13-35"
       inkscape:connector-curvature="0" />
    <path
       style="fill:#969696;fill-opacity:1;fill-rule:nonzero;stroke:none"
       d="m 11.598585,1039.6099 c 2.883735,-2.3195 5.76747,-4.6391 8.651206,-6.9587 0.566933,0.982 1.133867,1.964 1.7008,2.9459 -3.450668,1.3376 -6.901337,2.6752 -10.352006,4.0128 z"
       id="path3051-18-1"
       inkscape:connector-curvature="0" />
    <path
       style="fill:#969696;fill-opacity:1;fill-rule:nonzero;stroke:none"
       d="m 12.02849,1039.5101 c 3.65717,-0.567 7.314339,-1.1339 10.971509,-1.7008 0,1.1338 0,2.2677 0,3.4016 -3.65717,-0.5669 -7.314339,-1.1339 -10.971509,-1.7008 z"
       id="path3051-79-66"
       inkscape:connector-curvature="0" />
    <path
       style="fill:#969696;fill-opacity:1;fill-rule:nonzero;stroke:none"
       d="m 12.450762,1039.6385 c 3.450669,1.3376 6.901338,2.6752 10.352006,4.0128 -0.566933,0.982 -1.133866,1.964 -1.7008,2.9459 -2.883735,-2.3196 -5.767471,-4.6391 -8.651206,-6.9587 z"
       id="path3051-12-0"
       inkscape:connector-curvature="0" />
    <path
       style="fill:#969696;fill-opacity:1;fill-rule:nonzero;stroke:none"
       d="m 12.752254,1039.9608 c 2.319565,2.8838 4.639129,5.7675 6.958693,8.6512 -0.981959,0.567 -1.963918,1.1339 -2.945876,1.7008 -1.337606,-3.4506 -2.675211,-6.9013 -4.012817,-10.352 z"
       id="path3051-11-09"
       inkscape:connector-curvature="0" />
    <path
       style="fill:#969696;fill-opacity:1;fill-rule:nonzero;stroke:none"
       d="m 12.852179,1040.3907 c 0.566934,3.6572 1.133868,7.3143 1.700803,10.9715 -1.133869,0 -2.267737,0 -3.401606,0 0.566934,-3.6572 1.133869,-7.3143 1.700803,-10.9715 z"
       id="path3051-27-8"
       inkscape:connector-curvature="0" />
    <path
       style="fill:#969696;fill-opacity:1;fill-rule:nonzero;stroke:none"
       d="m 12.723764,1040.813 c -1.337606,3.4506 -2.675211,6.9013 -4.0128162,10.352 -0.9819589,-0.567 -1.9639179,-1.1339 -2.9458767,-1.7008 2.3195642,-2.8838 4.6391289,-5.7675 6.9586929,-8.6512 z"
       id="path3051-98-12"
       inkscape:connector-curvature="0" />
    <path
       style="fill:#969696;fill-opacity:1;fill-rule:nonzero;stroke:none"
       d="m 12.401415,1041.1145 c -2.8837355,2.3195 -5.7674706,4.6391 -8.6512059,6.9587 -0.5669335,-0.982 -1.1338673,-1.964 -1.7008009,-2.9459 3.4506689,-1.3376 6.9013377,-2.6752 10.3520068,-4.0128 z"
       id="path3051-28-6"
       inkscape:connector-curvature="0" />
    <path
       style="fill:#969696;fill-opacity:1;fill-rule:nonzero;stroke:none"
       d="m 11.971506,1041.2144 c -3.6571691,0.567 -7.3143386,1.1339 -10.97150813,1.7008 0,-1.1338 -3e-7,-2.2677 -3e-7,-3.4016 3.65716963,0.5669 7.31433923,1.1339 10.97150843,1.7008 z"
       id="path3051-86-1"
       inkscape:connector-curvature="0" />
    <path
       style="fill:#969696;fill-opacity:1;fill-rule:nonzero;stroke:none"
       d="m 11.549236,1041.086 c -3.4506691,-1.3376 -6.9013379,-2.6752 -10.3520067,-4.0128 0.5669336,-0.982 1.1338669,-1.964 1.7008004,-2.9459 2.8837353,2.3196 5.7674706,4.6391 8.6512063,6.9587 z"
       id="path3051-0-4"
       inkscape:connector-curvature="0" />
    <path
       style="fill:#969696;fill-opacity:1;fill-rule:nonzero;stroke:none"
       d="m 11.247743,1040.7637 c -2.3195637,-2.8838 -4.6391279,-5.7675 -6.9586921,-8.6512 0.9819588,-0.567 1.9639175,-1.1339 2.9458763,-1.7008 1.3376055,3.4506 2.6752108,6.9013 4.0128158,10.352 z"
       id="path3051-13-39"
       inkscape:connector-curvature="0" />
    <path
       style="font-size:114.63518524px;font-style:normal;font-weight:normal;line-height:125%;letter-spacing:0px;word-spacing:0px;fill:#000000;fill-opacity:1;stroke:none;font-family:Sans"
       d="m 2.0049983,1035.4445 c 0.3963439,0 0.7926878,0 1.1890317,0 0.2750138,0.8597 0.5500277,1.7193 0.8250415,2.5789 0.2766323,-0.8596 0.5532644,-1.7192 0.8298967,-2.5789 0.3955354,0 0.7910694,0 1.1866048,0 0,1.6064 0,3.2128 0,4.8193 -0.2944275,0 -0.5888536,0 -0.883281,0 0,-1.1751 0,-2.3501 0,-3.525 -0.2782494,0.8661 -0.5564985,1.7323 -0.8347491,2.5985 -0.4902426,0.1551 -0.7233108,-0.1664 -0.7841477,-0.5979 -0.2142305,-0.6668 -0.4284597,-1.3338 -0.6426903,-2.0006 0,1.1749 0,2.3499 0,3.525 -0.2952359,0 -0.5904719,0 -0.8857066,0 0,-1.6065 0,-3.2129 0,-4.8193 z m 4.9502547,0 c 0.3114129,0 0.6228257,0 0.9342386,0 0,1.6064 0,3.2128 0,4.8193 -0.3114129,0 -0.6228257,0 -0.9342386,0 0,-1.6065 0,-3.2129 0,-4.8193 z m 1.8539187,0 c 0.3114143,0 0.6228271,0 0.93424,0 0,1.2932 0,2.5865 0,3.8799 0.5467923,0 1.0935843,0 1.6403773,0 0,0.313 0,0.6261 0,0.9394 -0.858207,0 -1.7164108,0 -2.5746173,0 0,-1.6065 0,-3.2129 0,-4.8193 z m 1.9073043,0 c 1.112998,0 2.225997,0 3.338997,0 0,0.3131 0,0.6261 0,0.9393 -0.400389,0 -0.800777,0 -1.201167,0 0,1.2933 0,2.5867 0,3.88 -0.311413,0 -0.622826,0 -0.934238,0 0,-1.2933 0,-2.5867 0,-3.88 -0.401198,0 -0.802396,0 -1.203592,0 0,-0.3132 0,-0.6262 0,-0.9393 z m 5.474401,0.8133 c -0.771244,0.049 -0.902108,0.9998 -0.907125,1.6154 -0.08403,0.7069 0.344561,1.8696 1.234427,1.5143 0.614788,-0.4777 0.647085,-1.3819 0.531219,-2.095 -0.09048,-0.4544 -0.292688,-1.0526 -0.858521,-1.0347 z m 0,-0.9005 c 1.096571,-0.07 1.81723,1.0481 1.846192,2.0382 0.08931,0.9773 -0.0708,2.1974 -0.982966,2.7547 -0.890249,0.5135 -2.14981,0.073 -2.490266,-0.908 -0.384731,-1.1052 -0.376194,-2.504 0.430412,-3.423 0.310663,-0.3155 0.758874,-0.4676 1.196628,-0.4619 z m 2.567338,0.087 c 0.347811,0 0.695623,0 1.043436,0 0.439213,1.1017 0.878427,2.2035 1.31764,3.3053 0,-1.1018 0,-2.2036 0,-3.3053 0.295236,0 0.590472,0 0.885708,0 0,1.6064 0,3.2129 0,4.8193 -0.347812,0 -0.695625,0 -1.043437,0 -0.439214,-1.1018 -0.878427,-2.2036 -1.317641,-3.3054 0,1.1018 0,2.2036 0,3.3054 -0.295236,0 -0.590471,0 -0.885706,0 0,-1.6064 0,-3.2129 0,-4.8193 z"
       id="text3007-7"
       inkscape:connector-curvature="0" />
    <path
       style="font-size:129.11117554px;font-style:normal;font-weight:normal;line-height:0%;letter-spacing:0px;word-spacing:0px;fill:#000000;fill-opacity:1;stroke:none;font-family:Sans"
       d="m 1.9999975,1041.9495 c 0.3088416,0 0.6176818,0 0.9265221,0 0.3909249,1.0931 0.78185,2.1863 1.1727736,3.2795 0.3929764,-1.0932 0.785953,-2.1864 1.1789309,-3.2795 0.3088402,0 0.6176804,0 0.9265221,0 0,1.6064 0,3.2129 0,4.8192 -0.178779,-0.068 -0.6230306,0.1449 -0.6063959,-0.1265 0,-1.3682 0,-2.7366 0,-4.1051 -0.3950293,1.1019 -0.7900574,2.2036 -1.1850854,3.3054 -0.2090495,-0.059 -0.5840053,0.132 -0.667373,-0.1182 -0.3808585,-1.0623 -0.7617186,-2.1246 -1.1425772,-3.1869 0,1.4107 0,2.8213 0,4.2319 -0.1950438,-0.063 -0.6560196,0.1534 -0.6033172,-0.169 0,-1.5501 0,-3.1002 0,-4.6502 z m 6.7814776,0.4422 c -0.8990634,-0.052 -1.4725747,0.8978 -1.4682283,1.7498 -0.077949,0.8599 0.2282734,1.9612 1.1469457,2.1583 0.7834876,0.2155 1.5777045,-0.3976 1.7135515,-1.2123 0.201498,-0.9384 0.06029,-2.2372 -0.9242009,-2.6214 -0.1506244,-0.053 -0.3097697,-0.074 -0.468068,-0.074 z m 0,-0.5294 c 1.0647852,-0.07 1.9930479,0.8701 2.0877499,1.9593 0.186198,1.1175 -0.202274,2.511 -1.3162689,2.911 -0.9939575,0.381 -2.26906,-0.044 -2.6755075,-1.1219 -0.4674947,-1.194 -0.2666414,-2.9053 0.9359243,-3.5329 0.2998601,-0.1536 0.6360739,-0.2162 0.9681022,-0.2155 z m 3.1923569,0.623 c 0,1.2492 0,2.4984 0,3.7476 0.815915,-0.014 1.834047,0.1293 2.336312,-0.7106 0.343269,-0.7086 0.34571,-1.6203 0,-2.3283 -0.500872,-0.8444 -1.522693,-0.6931 -2.336312,-0.7087 z m -0.621784,-0.5358 c 1.091851,0.04 2.327146,-0.1957 3.238211,0.5842 0.751835,0.7608 0.750309,2.0406 0.426175,3.0128 -0.403791,1.0611 -1.625526,1.2623 -2.588272,1.2222 -0.358705,0 -0.717409,0 -1.076114,0 0,-1.6063 0,-3.2128 0,-4.8192 z m 4.325117,0 c 0.968589,0 1.93718,0 2.90577,0 -0.03072,0.2352 0.124905,0.6656 -0.241581,0.5486 -0.6808,0 -1.361602,0 -2.042404,0 0,0.4756 0,0.9513 0,1.4268 0.729521,0 1.459042,0 2.188562,0 -0.03072,0.2352 0.124906,0.6657 -0.24158,0.5488 -0.648995,0 -1.297988,0 -1.946982,0 0,0.582 0,1.1641 0,1.7462 0.779796,0 1.559595,0 2.339392,0 -0.03072,0.2352 0.124905,0.6657 -0.241581,0.5488 -0.906532,0 -1.813064,0 -2.719596,0 0,-1.6063 0,-3.2128 0,-4.8192 z m 3.463235,0 c 0.186164,0.064 0.629787,-0.1414 0.621785,0.1265 0,1.3813 0,2.7626 0,4.1438 0.745937,0 1.491874,0 2.237812,0 -0.03072,0.2352 0.124905,0.6657 -0.241581,0.5488 -0.872672,0 -1.745344,0 -2.618016,0 0,-1.6064 0,-3.2128 0,-4.8193 z"
       id="text3007-1-0"
       inkscape:connector-curvature="0" />
  </g>
</svg>
